<?xml version="1.0" encoding="utf-8"?><svg xmlns="http://www.w3.org/2000/svg" xmlns:xlink="http://www.w3.org/1999/xlink"><symbol fill="none" viewBox="0 0 40 40" id="logo_dark_mode_dark" xmlns="http://www.w3.org/2000/svg"><rect width="40" height="40" rx="4" fill="#152242"/><g clip-path="url(#aa)"><path d="M29.55 5.808c.36-1.382-2.927-2.67-4.859-3.203-1.932-.532-5.414-1.076-5.765.275-.195.745.465 1.193.642 1.508-.135.85-.654 2.907-1.648 4.337-1.242 1.788-2.991 1.962-4.286 2.546-1.466.66-2.226 2.581-2.485 3.575L7.01 30.742c.047.812 1.505 2.777 3.57 4.179 1.979 1.344 7.533 2.874 10.142 2.795 2.37-.072 5.412-.904 5.606-1.65l4.141-15.896c.28-1.076.802-3.08-.414-4.373-1.215-1.294-2.138-2.72-2.474-4.41-.27-1.351.32-3.55.681-4.603.548-.116 1.128-.355 1.29-.976Z" fill="#FEFEFE"/><path d="M26.101 21.378c-.921.299-1.403-.673-2.488-.686-1.086-.013-1.514.248-2.016.8-.524.578-.832 1.869-.305 2.66.746 1.12 1.764 2.327 3.676 2.903 2.19.66 3.104-.538 3.947-.924l.788-2.963c-.041-.396-.05-1.244-.368-1.902-.398-.824-1.309-1.29-1.92-1.027-.696.3-.61.912-1.314 1.14Z" fill="#546DDB"/><path d="M26.101 21.378c-.921.299-1.403-.673-2.488-.686-1.086-.013-1.514.248-2.016.8-.524.578-.832 1.869-.305 2.66.746 1.12 1.764 2.327 3.676 2.903 2.19.66 3.104-.538 3.947-.924l.788-2.963c-.041-.396-.05-1.244-.368-1.902-.398-.824-1.309-1.29-1.92-1.027-.696.3-.61.912-1.314 1.14Z" fill="#fff" fill-opacity=".4"/><path d="M15.983 10.321c-.999.43-1.794.586-2.35.95.331.938.834 1.167 1.743 1.382 1.454.346.423 1.011 2.198 2.62 1.775 1.607 3.774.995 4.492-.074.719-1.069-.326-2.14-.762-2.505-.437-.366.221-.874.337-1.689.114-.816-.002-1.288-.913-2.128-.608-.56-1.435-.941-2.372-.83-.54 1.01-1.242 1.787-2.373 2.274Z" fill="#546DDB"/><path d="M15.983 10.321c-.999.43-1.794.586-2.35.95.331.938.834 1.167 1.743 1.382 1.454.346.423 1.011 2.198 2.62 1.775 1.607 3.774.995 4.492-.074.719-1.069-.326-2.14-.762-2.505-.437-.366.221-.874.337-1.689.114-.816-.002-1.288-.913-2.128-.608-.56-1.435-.941-2.372-.83-.54 1.01-1.242 1.787-2.373 2.274Z" fill="#fff" fill-opacity=".4"/><path d="M13.348 21.308c-2.254-1.174-3.995.396-4.269 1.486l-2.07 7.948c.111.563.8 1.806 2.073 2.968 2.092 1.907 3.724 2.371 4.99 2.706.323-1.242-.145-1.55.041-2.159.187-.61 1.546.027 2.888-.474.777-.29 1.896-1.878.665-3.348-1.33-1.587-3.554-1.176-3.586-2.058-.033-.882.874-.808 1.254-2.117.479-1.65-.182-4.012-1.986-4.952Z" fill="#546DDB"/><path d="M13.348 21.308c-2.254-1.174-3.995.396-4.269 1.486l-2.07 7.948c.111.563.8 1.806 2.073 2.968 2.092 1.907 3.724 2.371 4.99 2.706.323-1.242-.145-1.55.041-2.159.187-.61 1.546.027 2.888-.474.777-.29 1.896-1.878.665-3.348-1.33-1.587-3.554-1.176-3.586-2.058-.033-.882.874-.808 1.254-2.117.479-1.65-.182-4.012-1.986-4.952Z" fill="#fff" fill-opacity=".4"/><path d="M6.276 13.628c1.264.008 3.704.012 5.207.28l-.463 1.434h-.029c-1.937-.059-5.228-.157-5.65 1.535-.423 1.7 5.973 5.528 13.561 7.6 7.588 2.07 14.995 2.346 15.599.175.402-1.447-2.582-3.51-4.098-4.234l.324-1.241c.986.411 2.929 1.303 3.914 1.887 1.151.683 5.312 3.087 4.797 5.152-.56 2.248-7.535 3.318-20.93-.16C6.532 22.943-.333 18.223.317 15.612c.409-1.64 4.204-1.996 5.96-1.985Z" fill="#FAA21E"/><path d="M6.276 13.628c1.264.008 3.704.012 5.207.28l-.463 1.434h-.029c-1.937-.059-5.228-.157-5.65 1.535-.423 1.7 5.973 5.528 13.561 7.6 7.588 2.07 14.995 2.346 15.599.175.402-1.447-2.582-3.51-4.098-4.234l.324-1.241c.986.411 2.929 1.303 3.914 1.887 1.151.683 5.312 3.087 4.797 5.152-.56 2.248-7.535 3.318-20.93-.16C6.532 22.943-.333 18.223.317 15.612c.409-1.64 4.204-1.996 5.96-1.985Z" fill="#fff" fill-opacity=".2"/><path d="M28.72 5.512c-.163.636-2.244.593-4.681-.068-2.438-.66-4.312-1.629-4.15-2.265.163-.636 2.3-.7 4.738-.04 2.437.662 4.255 1.736 4.092 2.373Z" fill="#898989"/><path d="M28.72 5.512c-.163.636-2.244.593-4.681-.068-2.438-.66-4.312-1.629-4.15-2.265.163-.636 2.3-.7 4.738-.04 2.437.662 4.255 1.736 4.092 2.373Z" fill="#fff" fill-opacity=".6"/></g><defs><clipPath id="aa"><path fill="#fff" transform="translate(0 2)" d="M0 0h40v36H0z"/></clipPath></defs></symbol><symbol fill="none" viewBox="0 0 80 70" id="logo_dark_mode_transparent" xmlns="http://www.w3.org/2000/svg"><g clip-path="url(#ba)"><path d="M59.101 7.404c.72-2.686-5.855-5.192-9.719-6.228-3.864-1.035-10.827-2.092-11.53.534-.39 1.449.93 2.32 1.284 2.933-.27 1.653-1.308 5.654-3.295 8.434-2.485 3.476-5.983 3.815-8.574 4.95-2.932 1.285-4.45 5.019-4.968 6.95l-8.282 30.91c.095 1.579 3.011 5.4 7.14 8.125 3.959 2.614 15.067 5.59 20.285 5.436 4.741-.141 10.824-1.759 11.212-3.208l8.282-30.91c.56-2.092 1.605-5.988-.827-8.503-2.432-2.516-4.278-5.288-4.95-8.574-.538-2.628.642-6.902 1.364-8.952 1.095-.224 2.255-.69 2.578-1.897Z" fill="#FEFEFE"/><path d="M52.202 37.68c-1.843.58-2.806-1.309-4.977-1.334-2.17-.026-3.027.481-4.03 1.556-1.05 1.123-1.666 3.632-.612 5.17 1.493 2.18 3.53 4.526 7.352 5.647 4.38 1.283 6.21-1.047 7.895-1.797l1.576-5.762c-.083-.77-.1-2.418-.737-3.7-.795-1.601-2.617-2.509-3.838-1.996-1.392.585-1.22 1.773-2.629 2.216Z" fill="#546DDB"/><path d="M52.202 37.68c-1.843.58-2.806-1.309-4.977-1.334-2.17-.026-3.027.481-4.03 1.556-1.05 1.123-1.666 3.632-.612 5.17 1.493 2.18 3.53 4.526 7.352 5.647 4.38 1.283 6.21-1.047 7.895-1.797l1.576-5.762c-.083-.77-.1-2.418-.737-3.7-.795-1.601-2.617-2.509-3.838-1.996-1.392.585-1.22 1.773-2.629 2.216Z" fill="#fff" fill-opacity=".4"/><path d="M31.967 16.18c-1.998.837-3.59 1.138-4.7 1.847.661 1.824 1.668 2.268 3.485 2.688 2.907.672.847 1.966 4.397 5.092 3.55 3.126 7.547 1.936 8.982-.143 1.439-2.078-.65-4.16-1.523-4.87-.873-.711.442-1.7.674-3.284.228-1.587-.003-2.504-1.826-4.138-1.217-1.09-2.87-1.831-4.744-1.614-1.079 1.963-2.484 3.475-4.745 4.422Z" fill="#546DDB"/><path d="M31.967 16.18c-1.998.837-3.59 1.138-4.7 1.847.661 1.824 1.668 2.268 3.485 2.688 2.907.672.847 1.966 4.397 5.092 3.55 3.126 7.547 1.936 8.982-.143 1.439-2.078-.65-4.16-1.523-4.87-.873-.711.442-1.7.674-3.284.228-1.587-.003-2.504-1.826-4.138-1.217-1.09-2.87-1.831-4.744-1.614-1.079 1.963-2.484 3.475-4.745 4.422Z" fill="#fff" fill-opacity=".4"/><path d="M26.697 37.544c-4.51-2.284-7.991.77-8.539 2.888l-4.141 15.455c.224 1.096 1.6 3.511 4.148 5.77 4.182 3.71 7.447 4.612 9.978 5.262.647-2.415-.29-3.012.084-4.197.372-1.186 3.09.053 5.776-.922 1.552-.564 3.79-3.65 1.329-6.51-2.659-3.087-7.108-2.287-7.172-4.002-.065-1.715 1.749-1.57 2.508-4.115.957-3.21-.364-7.802-3.971-9.63Z" fill="#546DDB"/><path d="M26.697 37.544c-4.51-2.284-7.991.77-8.539 2.888l-4.141 15.455c.224 1.096 1.6 3.511 4.148 5.77 4.182 3.71 7.447 4.612 9.978 5.262.647-2.415-.29-3.012.084-4.197.372-1.186 3.09.053 5.776-.922 1.552-.564 3.79-3.65 1.329-6.51-2.659-3.087-7.108-2.287-7.172-4.002-.065-1.715 1.749-1.57 2.508-4.115.957-3.21-.364-7.802-3.971-9.63Z" fill="#fff" fill-opacity=".4"/><path d="M12.552 22.61c2.528.016 7.407.023 10.415.545l-.927 2.789-.057-.002c-3.875-.113-10.457-.305-11.3 2.985-.848 3.306 11.945 10.75 27.121 14.776 15.176 4.028 29.99 4.563 31.197.342.805-2.813-5.163-6.823-8.194-8.232l.647-2.414c1.972.8 5.857 2.533 7.827 3.67 2.304 1.328 10.624 6.003 9.595 10.018-1.12 4.37-15.07 6.45-41.858-.313C13.062 40.725-.668 31.547.633 26.469c.817-3.188 8.407-3.88 11.92-3.859Z" fill="#FAA21E"/><path d="M12.552 22.61c2.528.016 7.407.023 10.415.545l-.927 2.789-.057-.002c-3.875-.113-10.457-.305-11.3 2.985-.848 3.306 11.945 10.75 27.121 14.776 15.176 4.028 29.99 4.563 31.197.342.805-2.813-5.163-6.823-8.194-8.232l.647-2.414c1.972.8 5.857 2.533 7.827 3.67 2.304 1.328 10.624 6.003 9.595 10.018-1.12 4.37-15.07 6.45-41.858-.313C13.062 40.725-.668 31.547.633 26.469c.817-3.188 8.407-3.88 11.92-3.859Z" fill="#fff" fill-opacity=".2"/><path d="M57.438 6.828c-.325 1.237-4.486 1.153-9.36-.131-4.876-1.285-8.624-3.168-8.3-4.405.325-1.237 4.6-1.36 9.476-.076 4.875 1.285 8.51 3.375 8.184 4.612Z" fill="#898989"/><path d="M57.438 6.828c-.325 1.237-4.486 1.153-9.36-.131-4.876-1.285-8.624-3.168-8.3-4.405.325-1.237 4.6-1.36 9.476-.076 4.875 1.285 8.51 3.375 8.184 4.612Z" fill="#fff" fill-opacity=".6"/></g><defs><clipPath id="ba"><path fill="#fff" d="M0 0h80v70H0z"/></clipPath></defs></symbol><symbol fill="none" viewBox="0 0 659 92" id="logo_text_horizontal" xmlns="http://www.w3.org/2000/svg"><g clip-path="url(#ca)"><path d="M9.248 3.704c.896 0 1.824.256 2.784.768 1.024.448 1.792 1.056 2.304 1.824L37.664 42.2l-4.8-.192L56.768 6.296c1.216-1.728 2.784-2.592 4.704-2.592 1.536 0 2.912.544 4.128 1.632 1.216 1.088 1.824 2.496 1.824 4.224v55.584c0 1.664-.544 3.072-1.632 4.224C64.704 70.456 63.264 71 61.472 71c-1.792 0-3.264-.544-4.416-1.632-1.088-1.152-1.632-2.56-1.632-4.224V19.928l3.744.864-19.584 29.856c-.576.704-1.312 1.312-2.208 1.824-.832.512-1.696.736-2.592.672-.832.064-1.696-.16-2.592-.672a8.359 8.359 0 0 1-2.112-1.824L11.744 21.656l2.496-5.088v48.576c0 1.664-.512 3.072-1.536 4.224C11.68 70.456 10.336 71 8.672 71c-1.6 0-2.912-.544-3.936-1.632-1.024-1.152-1.536-2.56-1.536-4.224V9.56c0-1.6.576-2.976 1.728-4.128 1.216-1.152 2.656-1.728 4.32-1.728Zm82.496 61.44c0 1.664-.544 3.072-1.632 4.224C89.024 70.456 87.648 71 85.984 71c-1.664 0-3.04-.544-4.128-1.632-1.088-1.152-1.632-2.56-1.632-4.224V25.496c0-1.664.544-3.04 1.632-4.128 1.088-1.152 2.464-1.728 4.128-1.728 1.664 0 3.04.576 4.128 1.728 1.088 1.088 1.632 2.464 1.632 4.128v39.648ZM85.888 13.4c-2.176 0-3.712-.352-4.608-1.056-.896-.704-1.344-1.952-1.344-3.744V6.776c0-1.856.48-3.104 1.44-3.744 1.024-.704 2.56-1.056 4.608-1.056 2.24 0 3.808.352 4.704 1.056.896.704 1.344 1.952 1.344 3.744V8.6c0 1.856-.48 3.136-1.44 3.84-.96.64-2.528.96-4.704.96Zm30.176 51.744c0 1.664-.576 3.072-1.728 4.224-1.088 1.088-2.464 1.632-4.128 1.632-1.6 0-2.944-.544-4.032-1.632-1.088-1.152-1.632-2.56-1.632-4.224V5.816c0-1.664.544-3.04 1.632-4.128C107.328.536 108.736-.04 110.4-.04c1.664 0 3.008.576 4.032 1.728 1.088 1.088 1.632 2.464 1.632 4.128v59.328ZM136.179 71c-1.664 0-3.04-.544-4.128-1.632-1.088-1.152-1.632-2.56-1.632-4.224V5.816c0-1.664.544-3.04 1.632-4.128 1.088-1.152 2.464-1.728 4.128-1.728 1.664 0 3.04.576 4.128 1.728 1.088 1.088 1.632 2.464 1.632 4.128v59.328c0 1.664-.544 3.072-1.632 4.224-1.088 1.088-2.464 1.632-4.128 1.632Zm30.528-51.36c1.472 0 2.752.608 3.84 1.824 1.088 1.216 1.632 2.4 1.632 3.552 0 1.536-.768 2.976-2.304 4.32l-28.896 26.592-.48-13.248 21.984-21.216c1.216-1.216 2.624-1.824 4.224-1.824Zm1.44 51.264c-1.664 0-3.072-.64-4.224-1.92l-17.76-18.816 8.736-8.064 17.28 18.816c1.216 1.28 1.824 2.72 1.824 4.32 0 1.664-.672 3.04-2.016 4.128-1.28 1.024-2.56 1.536-3.84 1.536Zm54.08-51.264c1.664 0 3.04.576 4.128 1.728 1.088 1.088 1.632 2.464 1.632 4.128v40.8c0 5.888-1.12 10.56-3.36 14.016-2.176 3.52-5.12 6.048-8.832 7.584-3.712 1.536-7.872 2.304-12.48 2.304-2.048 0-4.224-.16-6.528-.48-2.304-.32-4.192-.8-5.664-1.44-1.92-.832-3.264-1.888-4.032-3.168-.704-1.216-.832-2.528-.384-3.936.576-1.856 1.504-3.136 2.784-3.84 1.28-.64 2.624-.704 4.032-.192 1.024.32 2.368.8 4.032 1.44 1.664.704 3.584 1.056 5.76 1.056 2.944 0 5.376-.416 7.296-1.248 1.984-.768 3.456-2.112 4.416-4.032 1.024-1.856 1.536-4.416 1.536-7.68v-6.432l2.016 2.304c-1.088 2.112-2.464 3.872-4.128 5.28-1.6 1.344-3.52 2.368-5.76 3.072-2.24.704-4.8 1.056-7.68 1.056-3.392 0-6.368-.768-8.928-2.304-2.496-1.6-4.448-3.776-5.856-6.528-1.408-2.816-2.112-6.016-2.112-9.6V25.496c0-1.664.544-3.04 1.632-4.128 1.088-1.152 2.464-1.728 4.128-1.728 1.664 0 3.04.576 4.128 1.728 1.088 1.088 1.632 2.464 1.632 4.128v24.576c0 4.16.896 7.104 2.688 8.832 1.856 1.664 4.416 2.496 7.68 2.496 2.24 0 4.128-.416 5.664-1.248 1.536-.896 2.72-2.176 3.552-3.84.832-1.728 1.248-3.808 1.248-6.24V25.496c0-1.664.544-3.04 1.632-4.128 1.088-1.152 2.464-1.728 4.128-1.728Zm121.65-16.128c1.472 0 2.88.576 4.224 1.728 1.344 1.088 2.016 2.592 2.016 4.512 0 .576-.096 1.216-.288 1.92l-18.912 55.68a4.907 4.907 0 0 1-2.112 2.688 6.652 6.652 0 0 1-3.072.96c-1.088 0-2.176-.32-3.264-.96-1.024-.64-1.824-1.568-2.4-2.784L305.861 35l.864.576-14.016 31.68c-.576 1.216-1.408 2.144-2.496 2.784-1.024.64-2.08.96-3.168.96-1.024-.064-2.048-.384-3.072-.96a4.907 4.907 0 0 1-2.112-2.688l-18.912-55.68c-.192-.704-.288-1.344-.288-1.92 0-1.92.672-3.424 2.016-4.512 1.408-1.152 2.848-1.728 4.32-1.728 1.216 0 2.336.32 3.36.96 1.088.64 1.824 1.568 2.208 2.784l15.264 46.272-2.112-.096 13.632-32.736c.512-1.152 1.248-2.048 2.208-2.688.96-.704 2.048-1.024 3.264-.96 1.216-.064 2.304.256 3.264.96.96.64 1.664 1.536 2.112 2.688l12.48 31.296-1.536.96 15.072-45.696c.384-1.216 1.12-2.144 2.208-2.784 1.088-.64 2.24-.96 3.456-.96Zm55.255 15.168c1.664 0 3.04.544 4.128 1.632 1.088 1.088 1.632 2.496 1.632 4.224v40.608c0 1.664-.544 3.072-1.632 4.224-1.088 1.088-2.464 1.632-4.128 1.632-1.664 0-3.04-.544-4.128-1.632-1.088-1.152-1.632-2.56-1.632-4.224V60.44l2.112.864c0 .832-.448 1.856-1.344 3.072-.896 1.152-2.112 2.304-3.648 3.456-1.536 1.152-3.36 2.144-5.472 2.976-2.048.768-4.288 1.152-6.72 1.152-4.416 0-8.416-1.12-12-3.36-3.584-2.304-6.432-5.44-8.544-9.408-2.048-4.032-3.072-8.64-3.072-13.824 0-5.248 1.024-9.856 3.072-13.824 2.112-4.032 4.928-7.168 8.448-9.408 3.52-2.304 7.424-3.456 11.712-3.456 2.752 0 5.28.416 7.584 1.248 2.304.832 4.288 1.888 5.952 3.168 1.728 1.28 3.04 2.592 3.936 3.936.96 1.28 1.44 2.368 1.44 3.264l-3.456 1.248v-7.008c0-1.664.544-3.04 1.632-4.128 1.088-1.152 2.464-1.728 4.128-1.728ZM379.74 61.4c2.816 0 5.28-.704 7.392-2.112 2.112-1.408 3.744-3.328 4.896-5.76 1.216-2.432 1.824-5.152 1.824-8.16 0-3.072-.608-5.824-1.824-8.256-1.152-2.432-2.784-4.352-4.896-5.76-2.112-1.408-4.576-2.112-7.392-2.112-2.752 0-5.184.704-7.296 2.112-2.112 1.408-3.776 3.328-4.992 5.76-1.152 2.432-1.728 5.184-1.728 8.256 0 3.008.576 5.728 1.728 8.16 1.216 2.432 2.88 4.352 4.992 5.76 2.112 1.408 4.544 2.112 7.296 2.112Zm75.737-41.76c1.664 0 3.04.576 4.128 1.728 1.088 1.088 1.632 2.464 1.632 4.128v40.8c0 5.888-1.12 10.56-3.36 14.016-2.176 3.52-5.12 6.048-8.832 7.584-3.712 1.536-7.872 2.304-12.48 2.304-2.048 0-4.224-.16-6.528-.48-2.304-.32-4.192-.8-5.664-1.44-1.92-.832-3.264-1.888-4.032-3.168-.704-1.216-.832-2.528-.384-3.936.576-1.856 1.504-3.136 2.784-3.84 1.28-.64 2.624-.704 4.032-.192 1.024.32 2.368.8 4.032 1.44 1.664.704 3.584 1.056 5.76 1.056 2.944 0 5.376-.416 7.296-1.248 1.984-.768 3.456-2.112 4.416-4.032 1.024-1.856 1.536-4.416 1.536-7.68v-6.432l2.016 2.304c-1.088 2.112-2.464 3.872-4.128 5.28-1.6 1.344-3.52 2.368-5.76 3.072-2.24.704-4.8 1.056-7.68 1.056-3.392 0-6.368-.768-8.928-2.304-2.496-1.6-4.448-3.776-5.856-6.528-1.408-2.816-2.112-6.016-2.112-9.6V25.496c0-1.664.544-3.04 1.632-4.128 1.088-1.152 2.464-1.728 4.128-1.728 1.664 0 3.04.576 4.128 1.728 1.088 1.088 1.632 2.464 1.632 4.128v24.576c0 4.16.896 7.104 2.688 8.832 1.856 1.664 4.416 2.496 7.68 2.496 2.24 0 4.128-.416 5.664-1.248 1.536-.896 2.72-2.176 3.552-3.84.832-1.728 1.248-3.808 1.248-6.24V25.496c0-1.664.544-3.04 1.632-4.128 1.088-1.152 2.464-1.728 4.128-1.728Zm58.098 45.504c0 1.664-.608 3.072-1.824 4.224-1.216 1.088-2.624 1.632-4.224 1.632-1.792 0-3.232-.544-4.32-1.632-1.088-1.152-1.632-2.56-1.632-4.224V9.656c0-1.664.576-3.04 1.728-4.128 1.152-1.152 2.624-1.728 4.416-1.728 1.536 0 2.88.576 4.032 1.728 1.216 1.088 1.824 2.464 1.824 4.128v55.488ZM569.101-.04c1.664 0 3.04.544 4.128 1.632 1.088 1.088 1.632 2.496 1.632 4.224v59.328c0 1.664-.544 3.072-1.632 4.224-1.088 1.088-2.464 1.632-4.128 1.632-1.664 0-3.04-.544-4.128-1.632-1.088-1.152-1.632-2.56-1.632-4.224V60.44l2.112.864c0 .832-.448 1.856-1.344 3.072-.896 1.152-2.112 2.304-3.648 3.456-1.536 1.152-3.36 2.144-5.472 2.976-2.048.768-4.288 1.152-6.72 1.152-4.416 0-8.416-1.12-12-3.36-3.584-2.304-6.432-5.44-8.544-9.408-2.048-4.032-3.072-8.64-3.072-13.824 0-5.248 1.024-9.856 3.072-13.824 2.112-4.032 4.928-7.168 8.448-9.408 3.52-2.304 7.424-3.456 11.712-3.456 2.752 0 5.28.416 7.584 1.248 2.304.832 4.288 1.888 5.952 3.168 1.728 1.28 3.04 2.592 3.936 3.936.96 1.28 1.44 2.368 1.44 3.264l-3.456 1.248V5.816c0-1.664.544-3.04 1.632-4.128 1.088-1.152 2.464-1.728 4.128-1.728ZM549.709 61.4c2.816 0 5.28-.704 7.392-2.112 2.112-1.408 3.744-3.328 4.896-5.76 1.216-2.432 1.824-5.152 1.824-8.16 0-3.072-.608-5.824-1.824-8.256-1.152-2.432-2.784-4.352-4.896-5.76-2.112-1.408-4.576-2.112-7.392-2.112-2.752 0-5.184.704-7.296 2.112-2.112 1.408-3.776 3.328-4.992 5.76-1.152 2.432-1.728 5.184-1.728 8.256 0 3.008.576 5.728 1.728 8.16 1.216 2.432 2.88 4.352 4.992 5.76 2.112 1.408 4.544 2.112 7.296 2.112Zm50.105 3.744c0 1.664-.576 3.072-1.728 4.224-1.088 1.088-2.464 1.632-4.128 1.632-1.6 0-2.944-.544-4.032-1.632-1.088-1.152-1.632-2.56-1.632-4.224V5.816c0-1.664.544-3.04 1.632-4.128 1.152-1.152 2.56-1.728 4.224-1.728 1.664 0 3.008.576 4.032 1.728 1.088 1.088 1.632 2.464 1.632 4.128v59.328Zm36.649 6.816c-5.44 0-10.176-1.12-14.208-3.36-3.968-2.304-7.04-5.408-9.216-9.312-2.112-3.904-3.168-8.32-3.168-13.248 0-5.76 1.152-10.656 3.456-14.688 2.368-4.096 5.44-7.232 9.216-9.408 3.776-2.176 7.776-3.264 12-3.264 3.264 0 6.336.672 9.216 2.016a24.773 24.773 0 0 1 7.776 5.568c2.24 2.304 4 4.992 5.28 8.064 1.344 3.072 2.016 6.336 2.016 9.792-.064 1.536-.672 2.784-1.824 3.744-1.152.96-2.496 1.44-4.032 1.44h-36.672l-2.88-9.6h35.232l-2.112 1.92v-2.592c-.128-1.856-.8-3.52-2.016-4.992-1.152-1.472-2.624-2.624-4.416-3.456a11.92 11.92 0 0 0-5.568-1.344c-1.92 0-3.712.256-5.376.768a10.298 10.298 0 0 0-4.32 2.592c-1.216 1.216-2.176 2.848-2.88 4.896-.704 2.048-1.056 4.64-1.056 7.776 0 3.456.704 6.4 2.112 8.832 1.472 2.368 3.328 4.192 5.568 5.472 2.304 1.216 4.736 1.824 7.296 1.824 2.368 0 4.256-.192 5.664-.576 1.408-.384 2.528-.832 3.36-1.344a39.465 39.465 0 0 1 2.4-1.44c1.152-.576 2.24-.864 3.264-.864 1.408 0 2.56.48 3.456 1.44.96.96 1.44 2.08 1.44 3.36 0 1.728-.896 3.296-2.688 4.704-1.664 1.408-4 2.656-7.008 3.744a28.7 28.7 0 0 1-9.312 1.536Z" fill="#546DDB"/><path d="M9.248 3.704c.896 0 1.824.256 2.784.768 1.024.448 1.792 1.056 2.304 1.824L37.664 42.2l-4.8-.192L56.768 6.296c1.216-1.728 2.784-2.592 4.704-2.592 1.536 0 2.912.544 4.128 1.632 1.216 1.088 1.824 2.496 1.824 4.224v55.584c0 1.664-.544 3.072-1.632 4.224C64.704 70.456 63.264 71 61.472 71c-1.792 0-3.264-.544-4.416-1.632-1.088-1.152-1.632-2.56-1.632-4.224V19.928l3.744.864-19.584 29.856c-.576.704-1.312 1.312-2.208 1.824-.832.512-1.696.736-2.592.672-.832.064-1.696-.16-2.592-.672a8.359 8.359 0 0 1-2.112-1.824L11.744 21.656l2.496-5.088v48.576c0 1.664-.512 3.072-1.536 4.224C11.68 70.456 10.336 71 8.672 71c-1.6 0-2.912-.544-3.936-1.632-1.024-1.152-1.536-2.56-1.536-4.224V9.56c0-1.6.576-2.976 1.728-4.128 1.216-1.152 2.656-1.728 4.32-1.728Zm82.496 61.44c0 1.664-.544 3.072-1.632 4.224C89.024 70.456 87.648 71 85.984 71c-1.664 0-3.04-.544-4.128-1.632-1.088-1.152-1.632-2.56-1.632-4.224V25.496c0-1.664.544-3.04 1.632-4.128 1.088-1.152 2.464-1.728 4.128-1.728 1.664 0 3.04.576 4.128 1.728 1.088 1.088 1.632 2.464 1.632 4.128v39.648ZM85.888 13.4c-2.176 0-3.712-.352-4.608-1.056-.896-.704-1.344-1.952-1.344-3.744V6.776c0-1.856.48-3.104 1.44-3.744 1.024-.704 2.56-1.056 4.608-1.056 2.24 0 3.808.352 4.704 1.056.896.704 1.344 1.952 1.344 3.744V8.6c0 1.856-.48 3.136-1.44 3.84-.96.64-2.528.96-4.704.96Zm30.176 51.744c0 1.664-.576 3.072-1.728 4.224-1.088 1.088-2.464 1.632-4.128 1.632-1.6 0-2.944-.544-4.032-1.632-1.088-1.152-1.632-2.56-1.632-4.224V5.816c0-1.664.544-3.04 1.632-4.128C107.328.536 108.736-.04 110.4-.04c1.664 0 3.008.576 4.032 1.728 1.088 1.088 1.632 2.464 1.632 4.128v59.328ZM136.179 71c-1.664 0-3.04-.544-4.128-1.632-1.088-1.152-1.632-2.56-1.632-4.224V5.816c0-1.664.544-3.04 1.632-4.128 1.088-1.152 2.464-1.728 4.128-1.728 1.664 0 3.04.576 4.128 1.728 1.088 1.088 1.632 2.464 1.632 4.128v59.328c0 1.664-.544 3.072-1.632 4.224-1.088 1.088-2.464 1.632-4.128 1.632Zm30.528-51.36c1.472 0 2.752.608 3.84 1.824 1.088 1.216 1.632 2.4 1.632 3.552 0 1.536-.768 2.976-2.304 4.32l-28.896 26.592-.48-13.248 21.984-21.216c1.216-1.216 2.624-1.824 4.224-1.824Zm1.44 51.264c-1.664 0-3.072-.64-4.224-1.92l-17.76-18.816 8.736-8.064 17.28 18.816c1.216 1.28 1.824 2.72 1.824 4.32 0 1.664-.672 3.04-2.016 4.128-1.28 1.024-2.56 1.536-3.84 1.536Zm54.08-51.264c1.664 0 3.04.576 4.128 1.728 1.088 1.088 1.632 2.464 1.632 4.128v40.8c0 5.888-1.12 10.56-3.36 14.016-2.176 3.52-5.12 6.048-8.832 7.584-3.712 1.536-7.872 2.304-12.48 2.304-2.048 0-4.224-.16-6.528-.48-2.304-.32-4.192-.8-5.664-1.44-1.92-.832-3.264-1.888-4.032-3.168-.704-1.216-.832-2.528-.384-3.936.576-1.856 1.504-3.136 2.784-3.84 1.28-.64 2.624-.704 4.032-.192 1.024.32 2.368.8 4.032 1.44 1.664.704 3.584 1.056 5.76 1.056 2.944 0 5.376-.416 7.296-1.248 1.984-.768 3.456-2.112 4.416-4.032 1.024-1.856 1.536-4.416 1.536-7.68v-6.432l2.016 2.304c-1.088 2.112-2.464 3.872-4.128 5.28-1.6 1.344-3.52 2.368-5.76 3.072-2.24.704-4.8 1.056-7.68 1.056-3.392 0-6.368-.768-8.928-2.304-2.496-1.6-4.448-3.776-5.856-6.528-1.408-2.816-2.112-6.016-2.112-9.6V25.496c0-1.664.544-3.04 1.632-4.128 1.088-1.152 2.464-1.728 4.128-1.728 1.664 0 3.04.576 4.128 1.728 1.088 1.088 1.632 2.464 1.632 4.128v24.576c0 4.16.896 7.104 2.688 8.832 1.856 1.664 4.416 2.496 7.68 2.496 2.24 0 4.128-.416 5.664-1.248 1.536-.896 2.72-2.176 3.552-3.84.832-1.728 1.248-3.808 1.248-6.24V25.496c0-1.664.544-3.04 1.632-4.128 1.088-1.152 2.464-1.728 4.128-1.728Zm121.65-16.128c1.472 0 2.88.576 4.224 1.728 1.344 1.088 2.016 2.592 2.016 4.512 0 .576-.096 1.216-.288 1.92l-18.912 55.68a4.907 4.907 0 0 1-2.112 2.688 6.652 6.652 0 0 1-3.072.96c-1.088 0-2.176-.32-3.264-.96-1.024-.64-1.824-1.568-2.4-2.784L305.861 35l.864.576-14.016 31.68c-.576 1.216-1.408 2.144-2.496 2.784-1.024.64-2.08.96-3.168.96-1.024-.064-2.048-.384-3.072-.96a4.907 4.907 0 0 1-2.112-2.688l-18.912-55.68c-.192-.704-.288-1.344-.288-1.92 0-1.92.672-3.424 2.016-4.512 1.408-1.152 2.848-1.728 4.32-1.728 1.216 0 2.336.32 3.36.96 1.088.64 1.824 1.568 2.208 2.784l15.264 46.272-2.112-.096 13.632-32.736c.512-1.152 1.248-2.048 2.208-2.688.96-.704 2.048-1.024 3.264-.96 1.216-.064 2.304.256 3.264.96.96.64 1.664 1.536 2.112 2.688l12.48 31.296-1.536.96 15.072-45.696c.384-1.216 1.12-2.144 2.208-2.784 1.088-.64 2.24-.96 3.456-.96Zm55.255 15.168c1.664 0 3.04.544 4.128 1.632 1.088 1.088 1.632 2.496 1.632 4.224v40.608c0 1.664-.544 3.072-1.632 4.224-1.088 1.088-2.464 1.632-4.128 1.632-1.664 0-3.04-.544-4.128-1.632-1.088-1.152-1.632-2.56-1.632-4.224V60.44l2.112.864c0 .832-.448 1.856-1.344 3.072-.896 1.152-2.112 2.304-3.648 3.456-1.536 1.152-3.36 2.144-5.472 2.976-2.048.768-4.288 1.152-6.72 1.152-4.416 0-8.416-1.12-12-3.36-3.584-2.304-6.432-5.44-8.544-9.408-2.048-4.032-3.072-8.64-3.072-13.824 0-5.248 1.024-9.856 3.072-13.824 2.112-4.032 4.928-7.168 8.448-9.408 3.52-2.304 7.424-3.456 11.712-3.456 2.752 0 5.28.416 7.584 1.248 2.304.832 4.288 1.888 5.952 3.168 1.728 1.28 3.04 2.592 3.936 3.936.96 1.28 1.44 2.368 1.44 3.264l-3.456 1.248v-7.008c0-1.664.544-3.04 1.632-4.128 1.088-1.152 2.464-1.728 4.128-1.728ZM379.74 61.4c2.816 0 5.28-.704 7.392-2.112 2.112-1.408 3.744-3.328 4.896-5.76 1.216-2.432 1.824-5.152 1.824-8.16 0-3.072-.608-5.824-1.824-8.256-1.152-2.432-2.784-4.352-4.896-5.76-2.112-1.408-4.576-2.112-7.392-2.112-2.752 0-5.184.704-7.296 2.112-2.112 1.408-3.776 3.328-4.992 5.76-1.152 2.432-1.728 5.184-1.728 8.256 0 3.008.576 5.728 1.728 8.16 1.216 2.432 2.88 4.352 4.992 5.76 2.112 1.408 4.544 2.112 7.296 2.112Zm75.737-41.76c1.664 0 3.04.576 4.128 1.728 1.088 1.088 1.632 2.464 1.632 4.128v40.8c0 5.888-1.12 10.56-3.36 14.016-2.176 3.52-5.12 6.048-8.832 7.584-3.712 1.536-7.872 2.304-12.48 2.304-2.048 0-4.224-.16-6.528-.48-2.304-.32-4.192-.8-5.664-1.44-1.92-.832-3.264-1.888-4.032-3.168-.704-1.216-.832-2.528-.384-3.936.576-1.856 1.504-3.136 2.784-3.84 1.28-.64 2.624-.704 4.032-.192 1.024.32 2.368.8 4.032 1.44 1.664.704 3.584 1.056 5.76 1.056 2.944 0 5.376-.416 7.296-1.248 1.984-.768 3.456-2.112 4.416-4.032 1.024-1.856 1.536-4.416 1.536-7.68v-6.432l2.016 2.304c-1.088 2.112-2.464 3.872-4.128 5.28-1.6 1.344-3.52 2.368-5.76 3.072-2.24.704-4.8 1.056-7.68 1.056-3.392 0-6.368-.768-8.928-2.304-2.496-1.6-4.448-3.776-5.856-6.528-1.408-2.816-2.112-6.016-2.112-9.6V25.496c0-1.664.544-3.04 1.632-4.128 1.088-1.152 2.464-1.728 4.128-1.728 1.664 0 3.04.576 4.128 1.728 1.088 1.088 1.632 2.464 1.632 4.128v24.576c0 4.16.896 7.104 2.688 8.832 1.856 1.664 4.416 2.496 7.68 2.496 2.24 0 4.128-.416 5.664-1.248 1.536-.896 2.72-2.176 3.552-3.84.832-1.728 1.248-3.808 1.248-6.24V25.496c0-1.664.544-3.04 1.632-4.128 1.088-1.152 2.464-1.728 4.128-1.728Zm58.098 45.504c0 1.664-.608 3.072-1.824 4.224-1.216 1.088-2.624 1.632-4.224 1.632-1.792 0-3.232-.544-4.32-1.632-1.088-1.152-1.632-2.56-1.632-4.224V9.656c0-1.664.576-3.04 1.728-4.128 1.152-1.152 2.624-1.728 4.416-1.728 1.536 0 2.88.576 4.032 1.728 1.216 1.088 1.824 2.464 1.824 4.128v55.488ZM569.101-.04c1.664 0 3.04.544 4.128 1.632 1.088 1.088 1.632 2.496 1.632 4.224v59.328c0 1.664-.544 3.072-1.632 4.224-1.088 1.088-2.464 1.632-4.128 1.632-1.664 0-3.04-.544-4.128-1.632-1.088-1.152-1.632-2.56-1.632-4.224V60.44l2.112.864c0 .832-.448 1.856-1.344 3.072-.896 1.152-2.112 2.304-3.648 3.456-1.536 1.152-3.36 2.144-5.472 2.976-2.048.768-4.288 1.152-6.72 1.152-4.416 0-8.416-1.12-12-3.36-3.584-2.304-6.432-5.44-8.544-9.408-2.048-4.032-3.072-8.64-3.072-13.824 0-5.248 1.024-9.856 3.072-13.824 2.112-4.032 4.928-7.168 8.448-9.408 3.52-2.304 7.424-3.456 11.712-3.456 2.752 0 5.28.416 7.584 1.248 2.304.832 4.288 1.888 5.952 3.168 1.728 1.28 3.04 2.592 3.936 3.936.96 1.28 1.44 2.368 1.44 3.264l-3.456 1.248V5.816c0-1.664.544-3.04 1.632-4.128 1.088-1.152 2.464-1.728 4.128-1.728ZM549.709 61.4c2.816 0 5.28-.704 7.392-2.112 2.112-1.408 3.744-3.328 4.896-5.76 1.216-2.432 1.824-5.152 1.824-8.16 0-3.072-.608-5.824-1.824-8.256-1.152-2.432-2.784-4.352-4.896-5.76-2.112-1.408-4.576-2.112-7.392-2.112-2.752 0-5.184.704-7.296 2.112-2.112 1.408-3.776 3.328-4.992 5.76-1.152 2.432-1.728 5.184-1.728 8.256 0 3.008.576 5.728 1.728 8.16 1.216 2.432 2.88 4.352 4.992 5.76 2.112 1.408 4.544 2.112 7.296 2.112Zm50.105 3.744c0 1.664-.576 3.072-1.728 4.224-1.088 1.088-2.464 1.632-4.128 1.632-1.6 0-2.944-.544-4.032-1.632-1.088-1.152-1.632-2.56-1.632-4.224V5.816c0-1.664.544-3.04 1.632-4.128 1.152-1.152 2.56-1.728 4.224-1.728 1.664 0 3.008.576 4.032 1.728 1.088 1.088 1.632 2.464 1.632 4.128v59.328Zm36.649 6.816c-5.44 0-10.176-1.12-14.208-3.36-3.968-2.304-7.04-5.408-9.216-9.312-2.112-3.904-3.168-8.32-3.168-13.248 0-5.76 1.152-10.656 3.456-14.688 2.368-4.096 5.44-7.232 9.216-9.408 3.776-2.176 7.776-3.264 12-3.264 3.264 0 6.336.672 9.216 2.016a24.773 24.773 0 0 1 7.776 5.568c2.24 2.304 4 4.992 5.28 8.064 1.344 3.072 2.016 6.336 2.016 9.792-.064 1.536-.672 2.784-1.824 3.744-1.152.96-2.496 1.44-4.032 1.44h-36.672l-2.88-9.6h35.232l-2.112 1.92v-2.592c-.128-1.856-.8-3.52-2.016-4.992-1.152-1.472-2.624-2.624-4.416-3.456a11.92 11.92 0 0 0-5.568-1.344c-1.92 0-3.712.256-5.376.768a10.298 10.298 0 0 0-4.32 2.592c-1.216 1.216-2.176 2.848-2.88 4.896-.704 2.048-1.056 4.64-1.056 7.776 0 3.456.704 6.4 2.112 8.832 1.472 2.368 3.328 4.192 5.568 5.472 2.304 1.216 4.736 1.824 7.296 1.824 2.368 0 4.256-.192 5.664-.576 1.408-.384 2.528-.832 3.36-1.344a39.465 39.465 0 0 1 2.4-1.44c1.152-.576 2.24-.864 3.264-.864 1.408 0 2.56.48 3.456 1.44.96.96 1.44 2.08 1.44 3.36 0 1.728-.896 3.296-2.688 4.704-1.664 1.408-4 2.656-7.008 3.744a28.7 28.7 0 0 1-9.312 1.536Z" fill="#fff" fill-opacity=".2"/><path d="M6.248 4.704c.896 0 1.824.256 2.784.768 1.024.448 1.792 1.056 2.304 1.824L34.664 43.2l-4.8-.192L53.768 7.296c1.216-1.728 2.784-2.592 4.704-2.592 1.536 0 2.912.544 4.128 1.632 1.216 1.088 1.824 2.496 1.824 4.224v55.584c0 1.664-.544 3.072-1.632 4.224C61.704 71.456 60.264 72 58.472 72c-1.792 0-3.264-.544-4.416-1.632-1.088-1.152-1.632-2.56-1.632-4.224V20.928l3.744.864-19.584 29.856c-.576.704-1.312 1.312-2.208 1.824-.832.512-1.696.736-2.592.672-.832.064-1.696-.16-2.592-.672a8.359 8.359 0 0 1-2.112-1.824L8.744 22.656l2.496-5.088v48.576c0 1.664-.512 3.072-1.536 4.224C8.68 71.456 7.336 72 5.672 72c-1.6 0-2.912-.544-3.936-1.632C.712 69.216.2 67.808.2 66.144V10.56c0-1.6.576-2.976 1.728-4.128 1.216-1.152 2.656-1.728 4.32-1.728Zm82.496 61.44c0 1.664-.544 3.072-1.632 4.224C86.024 71.456 84.648 72 82.984 72c-1.664 0-3.04-.544-4.128-1.632-1.088-1.152-1.632-2.56-1.632-4.224V26.496c0-1.664.544-3.04 1.632-4.128 1.088-1.152 2.464-1.728 4.128-1.728 1.664 0 3.04.576 4.128 1.728 1.088 1.088 1.632 2.464 1.632 4.128v39.648ZM82.888 14.4c-2.176 0-3.712-.352-4.608-1.056-.896-.704-1.344-1.952-1.344-3.744V7.776c0-1.856.48-3.104 1.44-3.744 1.024-.704 2.56-1.056 4.608-1.056 2.24 0 3.808.352 4.704 1.056.896.704 1.344 1.952 1.344 3.744V9.6c0 1.856-.48 3.136-1.44 3.84-.96.64-2.528.96-4.704.96Zm30.176 51.744c0 1.664-.576 3.072-1.728 4.224-1.088 1.088-2.464 1.632-4.128 1.632-1.6 0-2.944-.544-4.032-1.632-1.088-1.152-1.632-2.56-1.632-4.224V6.816c0-1.664.544-3.04 1.632-4.128C104.328 1.536 105.736.96 107.4.96c1.664 0 3.008.576 4.032 1.728 1.088 1.088 1.632 2.464 1.632 4.128v59.328ZM133.179 72c-1.664 0-3.04-.544-4.128-1.632-1.088-1.152-1.632-2.56-1.632-4.224V6.816c0-1.664.544-3.04 1.632-4.128 1.088-1.152 2.464-1.728 4.128-1.728 1.664 0 3.04.576 4.128 1.728 1.088 1.088 1.632 2.464 1.632 4.128v59.328c0 1.664-.544 3.072-1.632 4.224-1.088 1.088-2.464 1.632-4.128 1.632Zm30.528-51.36c1.472 0 2.752.608 3.84 1.824 1.088 1.216 1.632 2.4 1.632 3.552 0 1.536-.768 2.976-2.304 4.32l-28.896 26.592-.48-13.248 21.984-21.216c1.216-1.216 2.624-1.824 4.224-1.824Zm1.44 51.264c-1.664 0-3.072-.64-4.224-1.92l-17.76-18.816 8.736-8.064 17.28 18.816c1.216 1.28 1.824 2.72 1.824 4.32 0 1.664-.672 3.04-2.016 4.128-1.28 1.024-2.56 1.536-3.84 1.536Zm54.08-51.264c1.664 0 3.04.576 4.128 1.728 1.088 1.088 1.632 2.464 1.632 4.128v40.8c0 5.888-1.12 10.56-3.36 14.016-2.176 3.52-5.12 6.048-8.832 7.584-3.712 1.536-7.872 2.304-12.48 2.304-2.048 0-4.224-.16-6.528-.48-2.304-.32-4.192-.8-5.664-1.44-1.92-.832-3.264-1.888-4.032-3.168-.704-1.216-.832-2.528-.384-3.936.576-1.856 1.504-3.136 2.784-3.84 1.28-.64 2.624-.704 4.032-.192 1.024.32 2.368.8 4.032 1.44 1.664.704 3.584 1.056 5.76 1.056 2.944 0 5.376-.416 7.296-1.248 1.984-.768 3.456-2.112 4.416-4.032 1.024-1.856 1.536-4.416 1.536-7.68v-6.432l2.016 2.304c-1.088 2.112-2.464 3.872-4.128 5.28-1.6 1.344-3.52 2.368-5.76 3.072-2.24.704-4.8 1.056-7.68 1.056-3.392 0-6.368-.768-8.928-2.304-2.496-1.6-4.448-3.776-5.856-6.528-1.408-2.816-2.112-6.016-2.112-9.6V26.496c0-1.664.544-3.04 1.632-4.128 1.088-1.152 2.464-1.728 4.128-1.728 1.664 0 3.04.576 4.128 1.728 1.088 1.088 1.632 2.464 1.632 4.128v24.576c0 4.16.896 7.104 2.688 8.832 1.856 1.664 4.416 2.496 7.68 2.496 2.24 0 4.128-.416 5.664-1.248 1.536-.896 2.72-2.176 3.552-3.84.832-1.728 1.248-3.808 1.248-6.24V26.496c0-1.664.544-3.04 1.632-4.128 1.088-1.152 2.464-1.728 4.128-1.728Zm121.65-16.128c1.472 0 2.88.576 4.224 1.728 1.344 1.088 2.016 2.592 2.016 4.512 0 .576-.096 1.216-.288 1.92l-18.912 55.68a4.907 4.907 0 0 1-2.112 2.688 6.652 6.652 0 0 1-3.072.96c-1.088 0-2.176-.32-3.264-.96-1.024-.64-1.824-1.568-2.4-2.784L302.861 36l.864.576-14.016 31.68c-.576 1.216-1.408 2.144-2.496 2.784-1.024.64-2.08.96-3.168.96-1.024-.064-2.048-.384-3.072-.96a4.907 4.907 0 0 1-2.112-2.688l-18.912-55.68c-.192-.704-.288-1.344-.288-1.92 0-1.92.672-3.424 2.016-4.512 1.408-1.152 2.848-1.728 4.32-1.728 1.216 0 2.336.32 3.36.96 1.088.64 1.824 1.568 2.208 2.784l15.264 46.272-2.112-.096 13.632-32.736c.512-1.152 1.248-2.048 2.208-2.688.96-.704 2.048-1.024 3.264-.96 1.216-.064 2.304.256 3.264.96.96.64 1.664 1.536 2.112 2.688l12.48 31.296-1.536.96 15.072-45.696c.384-1.216 1.12-2.144 2.208-2.784 1.088-.64 2.24-.96 3.456-.96Zm55.255 15.168c1.664 0 3.04.544 4.128 1.632 1.088 1.088 1.632 2.496 1.632 4.224v40.608c0 1.664-.544 3.072-1.632 4.224-1.088 1.088-2.464 1.632-4.128 1.632-1.664 0-3.04-.544-4.128-1.632-1.088-1.152-1.632-2.56-1.632-4.224V61.44l2.112.864c0 .832-.448 1.856-1.344 3.072-.896 1.152-2.112 2.304-3.648 3.456-1.536 1.152-3.36 2.144-5.472 2.976-2.048.768-4.288 1.152-6.72 1.152-4.416 0-8.416-1.12-12-3.36-3.584-2.304-6.432-5.44-8.544-9.408-2.048-4.032-3.072-8.64-3.072-13.824 0-5.248 1.024-9.856 3.072-13.824 2.112-4.032 4.928-7.168 8.448-9.408 3.52-2.304 7.424-3.456 11.712-3.456 2.752 0 5.28.416 7.584 1.248 2.304.832 4.288 1.888 5.952 3.168 1.728 1.28 3.04 2.592 3.936 3.936.96 1.28 1.44 2.368 1.44 3.264l-3.456 1.248v-7.008c0-1.664.544-3.04 1.632-4.128 1.088-1.152 2.464-1.728 4.128-1.728ZM376.74 62.4c2.816 0 5.28-.704 7.392-2.112 2.112-1.408 3.744-3.328 4.896-5.76 1.216-2.432 1.824-5.152 1.824-8.16 0-3.072-.608-5.824-1.824-8.256-1.152-2.432-2.784-4.352-4.896-5.76-2.112-1.408-4.576-2.112-7.392-2.112-2.752 0-5.184.704-7.296 2.112-2.112 1.408-3.776 3.328-4.992 5.76-1.152 2.432-1.728 5.184-1.728 8.256 0 3.008.576 5.728 1.728 8.16 1.216 2.432 2.88 4.352 4.992 5.76 2.112 1.408 4.544 2.112 7.296 2.112Zm75.737-41.76c1.664 0 3.04.576 4.128 1.728 1.088 1.088 1.632 2.464 1.632 4.128v40.8c0 5.888-1.12 10.56-3.36 14.016-2.176 3.52-5.12 6.048-8.832 7.584-3.712 1.536-7.872 2.304-12.48 2.304-2.048 0-4.224-.16-6.528-.48-2.304-.32-4.192-.8-5.664-1.44-1.92-.832-3.264-1.888-4.032-3.168-.704-1.216-.832-2.528-.384-3.936.576-1.856 1.504-3.136 2.784-3.84 1.28-.64 2.624-.704 4.032-.192 1.024.32 2.368.8 4.032 1.44 1.664.704 3.584 1.056 5.76 1.056 2.944 0 5.376-.416 7.296-1.248 1.984-.768 3.456-2.112 4.416-4.032 1.024-1.856 1.536-4.416 1.536-7.68v-6.432l2.016 2.304c-1.088 2.112-2.464 3.872-4.128 5.28-1.6 1.344-3.52 2.368-5.76 3.072-2.24.704-4.8 1.056-7.68 1.056-3.392 0-6.368-.768-8.928-2.304-2.496-1.6-4.448-3.776-5.856-6.528-1.408-2.816-2.112-6.016-2.112-9.6V26.496c0-1.664.544-3.04 1.632-4.128 1.088-1.152 2.464-1.728 4.128-1.728 1.664 0 3.04.576 4.128 1.728 1.088 1.088 1.632 2.464 1.632 4.128v24.576c0 4.16.896 7.104 2.688 8.832 1.856 1.664 4.416 2.496 7.68 2.496 2.24 0 4.128-.416 5.664-1.248 1.536-.896 2.72-2.176 3.552-3.84.832-1.728 1.248-3.808 1.248-6.24V26.496c0-1.664.544-3.04 1.632-4.128 1.088-1.152 2.464-1.728 4.128-1.728Zm58.098 45.504c0 1.664-.608 3.072-1.824 4.224-1.216 1.088-2.624 1.632-4.224 1.632-1.792 0-3.232-.544-4.32-1.632-1.088-1.152-1.632-2.56-1.632-4.224V10.656c0-1.664.576-3.04 1.728-4.128 1.152-1.152 2.624-1.728 4.416-1.728 1.536 0 2.88.576 4.032 1.728 1.216 1.088 1.824 2.464 1.824 4.128v55.488ZM566.101.96c1.664 0 3.04.544 4.128 1.632 1.088 1.088 1.632 2.496 1.632 4.224v59.328c0 1.664-.544 3.072-1.632 4.224-1.088 1.088-2.464 1.632-4.128 1.632-1.664 0-3.04-.544-4.128-1.632-1.088-1.152-1.632-2.56-1.632-4.224V61.44l2.112.864c0 .832-.448 1.856-1.344 3.072-.896 1.152-2.112 2.304-3.648 3.456-1.536 1.152-3.36 2.144-5.472 2.976-2.048.768-4.288 1.152-6.72 1.152-4.416 0-8.416-1.12-12-3.36-3.584-2.304-6.432-5.44-8.544-9.408-2.048-4.032-3.072-8.64-3.072-13.824 0-5.248 1.024-9.856 3.072-13.824 2.112-4.032 4.928-7.168 8.448-9.408 3.52-2.304 7.424-3.456 11.712-3.456 2.752 0 5.28.416 7.584 1.248 2.304.832 4.288 1.888 5.952 3.168 1.728 1.28 3.04 2.592 3.936 3.936.96 1.28 1.44 2.368 1.44 3.264l-3.456 1.248V6.816c0-1.664.544-3.04 1.632-4.128 1.088-1.152 2.464-1.728 4.128-1.728ZM546.709 62.4c2.816 0 5.28-.704 7.392-2.112 2.112-1.408 3.744-3.328 4.896-5.76 1.216-2.432 1.824-5.152 1.824-8.16 0-3.072-.608-5.824-1.824-8.256-1.152-2.432-2.784-4.352-4.896-5.76-2.112-1.408-4.576-2.112-7.392-2.112-2.752 0-5.184.704-7.296 2.112-2.112 1.408-3.776 3.328-4.992 5.76-1.152 2.432-1.728 5.184-1.728 8.256 0 3.008.576 5.728 1.728 8.16 1.216 2.432 2.88 4.352 4.992 5.76 2.112 1.408 4.544 2.112 7.296 2.112Zm50.105 3.744c0 1.664-.576 3.072-1.728 4.224-1.088 1.088-2.464 1.632-4.128 1.632-1.6 0-2.944-.544-4.032-1.632-1.088-1.152-1.632-2.56-1.632-4.224V6.816c0-1.664.544-3.04 1.632-4.128 1.152-1.152 2.56-1.728 4.224-1.728 1.664 0 3.008.576 4.032 1.728 1.088 1.088 1.632 2.464 1.632 4.128v59.328Zm36.649 6.816c-5.44 0-10.176-1.12-14.208-3.36-3.968-2.304-7.04-5.408-9.216-9.312-2.112-3.904-3.168-8.32-3.168-13.248 0-5.76 1.152-10.656 3.456-14.688 2.368-4.096 5.44-7.232 9.216-9.408 3.776-2.176 7.776-3.264 12-3.264 3.264 0 6.336.672 9.216 2.016a24.773 24.773 0 0 1 7.776 5.568c2.24 2.304 4 4.992 5.28 8.064 1.344 3.072 2.016 6.336 2.016 9.792-.064 1.536-.672 2.784-1.824 3.744-1.152.96-2.496 1.44-4.032 1.44h-36.672l-2.88-9.6h35.232l-2.112 1.92v-2.592c-.128-1.856-.8-3.52-2.016-4.992-1.152-1.472-2.624-2.624-4.416-3.456a11.92 11.92 0 0 0-5.568-1.344c-1.92 0-3.712.256-5.376.768a10.298 10.298 0 0 0-4.32 2.592c-1.216 1.216-2.176 2.848-2.88 4.896-.704 2.048-1.056 4.64-1.056 7.776 0 3.456.704 6.4 2.112 8.832 1.472 2.368 3.328 4.192 5.568 5.472 2.304 1.216 4.736 1.824 7.296 1.824 2.368 0 4.256-.192 5.664-.576 1.408-.384 2.528-.832 3.36-1.344a39.465 39.465 0 0 1 2.4-1.44c1.152-.576 2.24-.864 3.264-.864 1.408 0 2.56.48 3.456 1.44.96.96 1.44 2.08 1.44 3.36 0 1.728-.896 3.296-2.688 4.704-1.664 1.408-4 2.656-7.008 3.744a28.7 28.7 0 0 1-9.312 1.536Z" fill="#FEFEFE"/></g><defs><clipPath id="ca"><path fill="#fff" d="M0 0h659v92H0z"/></clipPath></defs></symbol><symbol fill="none" viewBox="0 0 70 70" id="logo_text_vertical" xmlns="http://www.w3.org/2000/svg"><g clip-path="url(#da)"><path d="M2.76 2.38c.187 0 .38.053.58.16.213.093.373.22.48.38l4.86 7.48-1-.04 4.98-7.44c.253-.36.58-.54.98-.54.32 0 .607.113.86.34.253.227.38.52.38.88v11.58c0 .347-.113.64-.34.88-.227.227-.527.34-.9.34s-.68-.113-.92-.34a1.234 1.234 0 0 1-.34-.88V5.76l.78.18-4.08 6.22c-.12.147-.273.273-.46.38a.89.89 0 0 1-.54.14.938.938 0 0 1-.54-.14 1.741 1.741 0 0 1-.44-.38L3.28 6.12l.52-1.06v10.12c0 .347-.107.64-.32.88-.213.227-.493.34-.84.34-.333 0-.607-.113-.82-.34a1.277 1.277 0 0 1-.32-.88V3.6c0-.333.12-.62.36-.86.253-.24.553-.36.9-.36Zm17.187 12.8c0 .347-.114.64-.34.88-.227.227-.514.34-.86.34-.347 0-.634-.113-.86-.34a1.234 1.234 0 0 1-.34-.88V6.92c0-.347.113-.633.34-.86.226-.24.513-.36.86-.36.346 0 .633.12.86.36.226.227.34.513.34.86v8.26ZM18.727 4.4c-.454 0-.774-.073-.96-.22-.187-.147-.28-.407-.28-.78v-.38c0-.387.1-.647.3-.78.213-.147.533-.22.96-.22.466 0 .793.073.98.22.186.147.28.407.28.78v.38c0 .387-.1.653-.3.8-.2.133-.527.2-.98.2Zm6.286 10.78c0 .347-.12.64-.36.88-.226.227-.513.34-.86.34a1.14 1.14 0 0 1-.84-.34 1.234 1.234 0 0 1-.34-.88V2.82a1.197 1.197 0 0 1 1.22-1.22c.347 0 .627.12.84.36.227.227.34.513.34.86v12.36Zm4.19 1.22c-.346 0-.632-.113-.86-.34a1.234 1.234 0 0 1-.34-.88V2.82c0-.347.114-.633.34-.86.228-.24.514-.36.86-.36.348 0 .634.12.86.36.228.227.34.513.34.86v12.36c0 .347-.112.64-.34.88-.226.227-.512.34-.86.34Zm6.36-10.7c.308 0 .574.127.8.38.228.253.34.5.34.74 0 .32-.16.62-.48.9l-6.02 5.54-.1-2.76 4.58-4.42c.254-.253.548-.38.88-.38Zm.3 10.68a1.14 1.14 0 0 1-.88-.4l-3.7-3.92 1.82-1.68 3.6 3.92c.254.267.38.567.38.9 0 .347-.14.633-.42.86-.266.213-.532.32-.8.32ZM47.132 5.7c.346 0 .633.12.86.36.226.227.34.513.34.86v8.5c0 1.227-.234 2.2-.7 2.92a3.853 3.853 0 0 1-1.84 1.58c-.774.32-1.64.48-2.6.48-.427 0-.88-.033-1.36-.1-.48-.067-.874-.167-1.18-.3-.4-.173-.68-.393-.84-.66a.978.978 0 0 1-.08-.82c.12-.387.313-.653.58-.8.266-.133.546-.147.84-.04.213.067.493.167.84.3.346.147.746.22 1.2.22.613 0 1.12-.087 1.52-.26.413-.16.72-.44.92-.84.213-.387.32-.92.32-1.6v-1.34l.42.48c-.227.44-.514.807-.86 1.1-.334.28-.734.493-1.2.64-.467.147-1 .22-1.6.22-.707 0-1.327-.16-1.86-.48a3.444 3.444 0 0 1-1.22-1.36c-.294-.587-.44-1.253-.44-2V6.92c0-.347.113-.633.34-.86.226-.24.513-.36.86-.36.346 0 .633.12.86.36.226.227.34.513.34.86v5.12c0 .867.186 1.48.56 1.84.386.347.92.52 1.6.52.466 0 .86-.087 1.18-.26a1.87 1.87 0 0 0 .74-.8c.173-.36.26-.793.26-1.3V6.92c0-.347.113-.633.34-.86.226-.24.513-.36.86-.36ZM17.24 28.34c.307 0 .6.12.88.36.28.227.42.54.42.94 0 .12-.02.253-.06.4l-3.94 11.6c-.08.24-.227.427-.44.56-.2.12-.413.187-.64.2-.227 0-.453-.067-.68-.2a1.339 1.339 0 0 1-.5-.58L9.32 34.9l.18.12-2.92 6.6c-.12.253-.293.447-.52.58a1.23 1.23 0 0 1-.66.2 1.489 1.489 0 0 1-.64-.2 1.022 1.022 0 0 1-.44-.56L.38 30.04c-.04-.147-.06-.28-.06-.4 0-.4.14-.713.42-.94.293-.24.593-.36.9-.36.253 0 .487.067.7.2a1 1 0 0 1 .46.58l3.18 9.64-.44-.02 2.84-6.82c.107-.24.26-.427.46-.56.2-.147.427-.213.68-.2.253-.013.48.053.68.2.2.133.347.32.44.56l2.6 6.52-.32.2 3.14-9.52a1 1 0 0 1 .46-.58c.227-.133.467-.2.72-.2Zm11.511 3.16c.347 0 .634.113.86.34.227.227.34.52.34.88v8.46c0 .347-.113.64-.34.88-.226.227-.513.34-.86.34-.346 0-.633-.113-.86-.34a1.234 1.234 0 0 1-.34-.88v-.98l.44.18c0 .173-.093.387-.28.64-.186.24-.44.48-.76.72s-.7.447-1.14.62c-.426.16-.893.24-1.4.24a4.62 4.62 0 0 1-2.5-.7 5.164 5.164 0 0 1-1.78-1.96c-.426-.84-.64-1.8-.64-2.88 0-1.093.214-2.053.64-2.88.44-.84 1.027-1.493 1.76-1.96a4.361 4.361 0 0 1 2.44-.72c.574 0 1.1.087 1.58.26.48.173.894.393 1.24.66.36.267.634.54.82.82.2.267.3.493.3.68l-.72.26v-1.46c0-.347.114-.633.34-.86.227-.24.514-.36.86-.36Zm-4.04 8.9c.587 0 1.1-.147 1.54-.44.44-.293.78-.693 1.02-1.2.254-.507.38-1.073.38-1.7 0-.64-.126-1.213-.38-1.72a2.899 2.899 0 0 0-1.02-1.2c-.44-.293-.953-.44-1.54-.44-.573 0-1.08.147-1.52.44-.44.293-.786.693-1.04 1.2-.24.507-.36 1.08-.36 1.72 0 .627.12 1.193.36 1.7.254.507.6.907 1.04 1.2.44.293.947.44 1.52.44Zm15.779-8.7c.347 0 .633.12.86.36.227.227.34.513.34.86v8.5c0 1.227-.233 2.2-.7 2.92a3.853 3.853 0 0 1-1.84 1.58c-.773.32-1.64.48-2.6.48-.427 0-.88-.033-1.36-.1-.48-.067-.873-.167-1.18-.3-.4-.173-.68-.393-.84-.66a.977.977 0 0 1-.08-.82c.12-.387.313-.653.58-.8.267-.133.547-.147.84-.04.213.067.493.167.84.3.347.147.747.22 1.2.22.613 0 1.12-.087 1.52-.26.413-.16.72-.44.92-.84.213-.387.32-.92.32-1.6v-1.34l.42.48c-.227.44-.513.807-.86 1.1-.333.28-.733.493-1.2.64-.467.147-1 .22-1.6.22-.707 0-1.327-.16-1.86-.48a3.443 3.443 0 0 1-1.22-1.36c-.293-.587-.44-1.253-.44-2v-5.84c0-.347.113-.633.34-.86.227-.24.513-.36.86-.36s.633.12.86.36c.227.227.34.513.34.86v5.12c0 .867.187 1.48.56 1.84.387.347.92.52 1.6.52.467 0 .86-.087 1.18-.26a1.87 1.87 0 0 0 .74-.8c.173-.36.26-.793.26-1.3v-5.12c0-.347.113-.633.34-.86.227-.24.513-.36.86-.36ZM4 67.18c0 .347-.127.64-.38.88a1.28 1.28 0 0 1-.88.34c-.373 0-.673-.113-.9-.34a1.234 1.234 0 0 1-.34-.88V55.62c0-.347.12-.633.36-.86.24-.24.547-.36.92-.36.32 0 .6.12.84.36.253.227.38.513.38.86v11.56ZM15.568 53.6c.347 0 .633.113.86.34.226.227.34.52.34.88v12.36c0 .347-.114.64-.34.88-.227.227-.514.34-.86.34-.347 0-.633-.113-.86-.34a1.234 1.234 0 0 1-.34-.88v-.98l.44.18c0 .173-.094.387-.28.64-.187.24-.44.48-.76.72s-.7.447-1.14.62c-.427.16-.893.24-1.4.24a4.62 4.62 0 0 1-2.5-.7 5.164 5.164 0 0 1-1.78-1.96c-.427-.84-.64-1.8-.64-2.88 0-1.093.213-2.053.64-2.88.44-.84 1.026-1.493 1.76-1.96a4.361 4.361 0 0 1 2.44-.72c.573 0 1.1.087 1.58.26.48.173.893.393 1.24.66.36.267.633.54.82.82.2.267.3.493.3.68l-.72.26v-5.36c0-.347.113-.633.34-.86.226-.24.513-.36.86-.36Zm-4.04 12.8c.586 0 1.1-.147 1.54-.44.44-.293.78-.693 1.02-1.2.253-.507.38-1.073.38-1.7 0-.64-.127-1.213-.38-1.72a2.899 2.899 0 0 0-1.02-1.2c-.44-.293-.954-.44-1.54-.44-.574 0-1.08.147-1.52.44-.44.293-.787.693-1.04 1.2-.24.507-.36 1.08-.36 1.72 0 .627.12 1.193.36 1.7.253.507.6.907 1.04 1.2.44.293.947.44 1.52.44Zm10.438.78c0 .347-.12.64-.36.88-.226.227-.513.34-.86.34-.333 0-.613-.113-.84-.34a1.234 1.234 0 0 1-.34-.88V54.82a1.197 1.197 0 0 1 1.22-1.22c.347 0 .627.12.84.36.227.227.34.513.34.86v12.36Zm7.636 1.42c-1.134 0-2.12-.233-2.96-.7a5.063 5.063 0 0 1-1.92-1.94c-.44-.813-.66-1.733-.66-2.76 0-1.2.24-2.22.72-3.06.493-.853 1.133-1.507 1.92-1.96a4.93 4.93 0 0 1 2.5-.68c.68 0 1.32.14 1.92.42a5.16 5.16 0 0 1 1.62 1.16c.466.48.833 1.04 1.1 1.68.28.64.42 1.32.42 2.04-.014.32-.14.58-.38.78-.24.2-.52.3-.84.3h-7.64l-.6-2h7.34l-.44.4v-.54a1.79 1.79 0 0 0-.42-1.04 2.464 2.464 0 0 0-.92-.72 2.483 2.483 0 0 0-1.16-.28c-.4 0-.774.053-1.12.16a2.147 2.147 0 0 0-.9.54c-.254.253-.454.593-.6 1.02-.147.427-.22.967-.22 1.62 0 .72.146 1.333.44 1.84.306.493.693.873 1.16 1.14.48.253.986.38 1.52.38.493 0 .886-.04 1.18-.12.293-.08.526-.173.7-.28.186-.12.353-.22.5-.3.24-.12.466-.18.68-.18.293 0 .533.1.72.3.2.2.3.433.3.7 0 .36-.187.687-.56.98-.347.293-.834.553-1.46.78a5.98 5.98 0 0 1-1.94.32Z" fill="#898989"/><path d="M2.76 2.38c.187 0 .38.053.58.16.213.093.373.22.48.38l4.86 7.48-1-.04 4.98-7.44c.253-.36.58-.54.98-.54.32 0 .607.113.86.34.253.227.38.52.38.88v11.58c0 .347-.113.64-.34.88-.227.227-.527.34-.9.34s-.68-.113-.92-.34a1.234 1.234 0 0 1-.34-.88V5.76l.78.18-4.08 6.22c-.12.147-.273.273-.46.38a.89.89 0 0 1-.54.14.938.938 0 0 1-.54-.14 1.741 1.741 0 0 1-.44-.38L3.28 6.12l.52-1.06v10.12c0 .347-.107.64-.32.88-.213.227-.493.34-.84.34-.333 0-.607-.113-.82-.34a1.277 1.277 0 0 1-.32-.88V3.6c0-.333.12-.62.36-.86.253-.24.553-.36.9-.36Zm17.187 12.8c0 .347-.114.64-.34.88-.227.227-.514.34-.86.34-.347 0-.634-.113-.86-.34a1.234 1.234 0 0 1-.34-.88V6.92c0-.347.113-.633.34-.86.226-.24.513-.36.86-.36.346 0 .633.12.86.36.226.227.34.513.34.86v8.26ZM18.727 4.4c-.454 0-.774-.073-.96-.22-.187-.147-.28-.407-.28-.78v-.38c0-.387.1-.647.3-.78.213-.147.533-.22.96-.22.466 0 .793.073.98.22.186.147.28.407.28.78v.38c0 .387-.1.653-.3.8-.2.133-.527.2-.98.2Zm6.286 10.78c0 .347-.12.64-.36.88-.226.227-.513.34-.86.34a1.14 1.14 0 0 1-.84-.34 1.234 1.234 0 0 1-.34-.88V2.82a1.197 1.197 0 0 1 1.22-1.22c.347 0 .627.12.84.36.227.227.34.513.34.86v12.36Zm4.19 1.22c-.346 0-.632-.113-.86-.34a1.234 1.234 0 0 1-.34-.88V2.82c0-.347.114-.633.34-.86.228-.24.514-.36.86-.36.348 0 .634.12.86.36.228.227.34.513.34.86v12.36c0 .347-.112.64-.34.88-.226.227-.512.34-.86.34Zm6.36-10.7c.308 0 .574.127.8.38.228.253.34.5.34.74 0 .32-.16.62-.48.9l-6.02 5.54-.1-2.76 4.58-4.42c.254-.253.548-.38.88-.38Zm.3 10.68a1.14 1.14 0 0 1-.88-.4l-3.7-3.92 1.82-1.68 3.6 3.92c.254.267.38.567.38.9 0 .347-.14.633-.42.86-.266.213-.532.32-.8.32ZM47.132 5.7c.346 0 .633.12.86.36.226.227.34.513.34.86v8.5c0 1.227-.234 2.2-.7 2.92a3.853 3.853 0 0 1-1.84 1.58c-.774.32-1.64.48-2.6.48-.427 0-.88-.033-1.36-.1-.48-.067-.874-.167-1.18-.3-.4-.173-.68-.393-.84-.66a.978.978 0 0 1-.08-.82c.12-.387.313-.653.58-.8.266-.133.546-.147.84-.04.213.067.493.167.84.3.346.147.746.22 1.2.22.613 0 1.12-.087 1.52-.26.413-.16.72-.44.92-.84.213-.387.32-.92.32-1.6v-1.34l.42.48c-.227.44-.514.807-.86 1.1-.334.28-.734.493-1.2.64-.467.147-1 .22-1.6.22-.707 0-1.327-.16-1.86-.48a3.444 3.444 0 0 1-1.22-1.36c-.294-.587-.44-1.253-.44-2V6.92c0-.347.113-.633.34-.86.226-.24.513-.36.86-.36.346 0 .633.12.86.36.226.227.34.513.34.86v5.12c0 .867.186 1.48.56 1.84.386.347.92.52 1.6.52.466 0 .86-.087 1.18-.26a1.87 1.87 0 0 0 .74-.8c.173-.36.26-.793.26-1.3V6.92c0-.347.113-.633.34-.86.226-.24.513-.36.86-.36ZM17.24 28.34c.307 0 .6.12.88.36.28.227.42.54.42.94 0 .12-.02.253-.06.4l-3.94 11.6c-.08.24-.227.427-.44.56-.2.12-.413.187-.64.2-.227 0-.453-.067-.68-.2a1.339 1.339 0 0 1-.5-.58L9.32 34.9l.18.12-2.92 6.6c-.12.253-.293.447-.52.58a1.23 1.23 0 0 1-.66.2 1.489 1.489 0 0 1-.64-.2 1.022 1.022 0 0 1-.44-.56L.38 30.04c-.04-.147-.06-.28-.06-.4 0-.4.14-.713.42-.94.293-.24.593-.36.9-.36.253 0 .487.067.7.2a1 1 0 0 1 .46.58l3.18 9.64-.44-.02 2.84-6.82c.107-.24.26-.427.46-.56.2-.147.427-.213.68-.2.253-.013.48.053.68.2.2.133.347.32.44.56l2.6 6.52-.32.2 3.14-9.52a1 1 0 0 1 .46-.58c.227-.133.467-.2.72-.2Zm11.511 3.16c.347 0 .634.113.86.34.227.227.34.52.34.88v8.46c0 .347-.113.64-.34.88-.226.227-.513.34-.86.34-.346 0-.633-.113-.86-.34a1.234 1.234 0 0 1-.34-.88v-.98l.44.18c0 .173-.093.387-.28.64-.186.24-.44.48-.76.72s-.7.447-1.14.62c-.426.16-.893.24-1.4.24a4.62 4.62 0 0 1-2.5-.7 5.164 5.164 0 0 1-1.78-1.96c-.426-.84-.64-1.8-.64-2.88 0-1.093.214-2.053.64-2.88.44-.84 1.027-1.493 1.76-1.96a4.361 4.361 0 0 1 2.44-.72c.574 0 1.1.087 1.58.26.48.173.894.393 1.24.66.36.267.634.54.82.82.2.267.3.493.3.68l-.72.26v-1.46c0-.347.114-.633.34-.86.227-.24.514-.36.86-.36Zm-4.04 8.9c.587 0 1.1-.147 1.54-.44.44-.293.78-.693 1.02-1.2.254-.507.38-1.073.38-1.7 0-.64-.126-1.213-.38-1.72a2.899 2.899 0 0 0-1.02-1.2c-.44-.293-.953-.44-1.54-.44-.573 0-1.08.147-1.52.44-.44.293-.786.693-1.04 1.2-.24.507-.36 1.08-.36 1.72 0 .627.12 1.193.36 1.7.254.507.6.907 1.04 1.2.44.293.947.44 1.52.44Zm15.779-8.7c.347 0 .633.12.86.36.227.227.34.513.34.86v8.5c0 1.227-.233 2.2-.7 2.92a3.853 3.853 0 0 1-1.84 1.58c-.773.32-1.64.48-2.6.48-.427 0-.88-.033-1.36-.1-.48-.067-.873-.167-1.18-.3-.4-.173-.68-.393-.84-.66a.977.977 0 0 1-.08-.82c.12-.387.313-.653.58-.8.267-.133.547-.147.84-.04.213.067.493.167.84.3.347.147.747.22 1.2.22.613 0 1.12-.087 1.52-.26.413-.16.72-.44.92-.84.213-.387.32-.92.32-1.6v-1.34l.42.48c-.227.44-.513.807-.86 1.1-.333.28-.733.493-1.2.64-.467.147-1 .22-1.6.22-.707 0-1.327-.16-1.86-.48a3.443 3.443 0 0 1-1.22-1.36c-.293-.587-.44-1.253-.44-2v-5.84c0-.347.113-.633.34-.86.227-.24.513-.36.86-.36s.633.12.86.36c.227.227.34.513.34.86v5.12c0 .867.187 1.48.56 1.84.387.347.92.52 1.6.52.467 0 .86-.087 1.18-.26a1.87 1.87 0 0 0 .74-.8c.173-.36.26-.793.26-1.3v-5.12c0-.347.113-.633.34-.86.227-.24.513-.36.86-.36ZM4 67.18c0 .347-.127.64-.38.88a1.28 1.28 0 0 1-.88.34c-.373 0-.673-.113-.9-.34a1.234 1.234 0 0 1-.34-.88V55.62c0-.347.12-.633.36-.86.24-.24.547-.36.92-.36.32 0 .6.12.84.36.253.227.38.513.38.86v11.56ZM15.568 53.6c.347 0 .633.113.86.34.226.227.34.52.34.88v12.36c0 .347-.114.64-.34.88-.227.227-.514.34-.86.34-.347 0-.633-.113-.86-.34a1.234 1.234 0 0 1-.34-.88v-.98l.44.18c0 .173-.094.387-.28.64-.187.24-.44.48-.76.72s-.7.447-1.14.62c-.427.16-.893.24-1.4.24a4.62 4.62 0 0 1-2.5-.7 5.164 5.164 0 0 1-1.78-1.96c-.427-.84-.64-1.8-.64-2.88 0-1.093.213-2.053.64-2.88.44-.84 1.026-1.493 1.76-1.96a4.361 4.361 0 0 1 2.44-.72c.573 0 1.1.087 1.58.26.48.173.893.393 1.24.66.36.267.633.54.82.82.2.267.3.493.3.68l-.72.26v-5.36c0-.347.113-.633.34-.86.226-.24.513-.36.86-.36Zm-4.04 12.8c.586 0 1.1-.147 1.54-.44.44-.293.78-.693 1.02-1.2.253-.507.38-1.073.38-1.7 0-.64-.127-1.213-.38-1.72a2.899 2.899 0 0 0-1.02-1.2c-.44-.293-.954-.44-1.54-.44-.574 0-1.08.147-1.52.44-.44.293-.787.693-1.04 1.2-.24.507-.36 1.08-.36 1.72 0 .627.12 1.193.36 1.7.253.507.6.907 1.04 1.2.44.293.947.44 1.52.44Zm10.438.78c0 .347-.12.64-.36.88-.226.227-.513.34-.86.34-.333 0-.613-.113-.84-.34a1.234 1.234 0 0 1-.34-.88V54.82a1.197 1.197 0 0 1 1.22-1.22c.347 0 .627.12.84.36.227.227.34.513.34.86v12.36Zm7.636 1.42c-1.134 0-2.12-.233-2.96-.7a5.063 5.063 0 0 1-1.92-1.94c-.44-.813-.66-1.733-.66-2.76 0-1.2.24-2.22.72-3.06.493-.853 1.133-1.507 1.92-1.96a4.93 4.93 0 0 1 2.5-.68c.68 0 1.32.14 1.92.42a5.16 5.16 0 0 1 1.62 1.16c.466.48.833 1.04 1.1 1.68.28.64.42 1.32.42 2.04-.014.32-.14.58-.38.78-.24.2-.52.3-.84.3h-7.64l-.6-2h7.34l-.44.4v-.54a1.79 1.79 0 0 0-.42-1.04 2.464 2.464 0 0 0-.92-.72 2.483 2.483 0 0 0-1.16-.28c-.4 0-.774.053-1.12.16a2.147 2.147 0 0 0-.9.54c-.254.253-.454.593-.6 1.02-.147.427-.22.967-.22 1.62 0 .72.146 1.333.44 1.84.306.493.693.873 1.16 1.14.48.253.986.38 1.52.38.493 0 .886-.04 1.18-.12.293-.08.526-.173.7-.28.186-.12.353-.22.5-.3.24-.12.466-.18.68-.18.293 0 .533.1.72.3.2.2.3.433.3.7 0 .36-.187.687-.56.98-.347.293-.834.553-1.46.78a5.98 5.98 0 0 1-1.94.32Z" fill="#fff" fill-opacity=".95"/></g><defs><clipPath id="da"><path fill="#fff" d="M0 0h70v70H0z"/></clipPath></defs></symbol><symbol fill="none" viewBox="0 0 570 539" id="logo_transparent_570" xmlns="http://www.w3.org/2000/svg"><path d="m321.931 109.122-81.013 341.62 84.496 22.772c7.163 2.453 22.52.4 25.609-2.154 5.075-4.197 9.596-2.636 11.758-11.751l43.787-184.644c4.433-18.693 5.748-32.527-.223-44.744-8.956-18.333-25.805-23.008-33.57-46.361-5.18-15.555-3.386-37.764 5.377-66.614l-56.221-8.124Z" fill="#fff"/><path d="m324.246 109.923-81.013 341.621-84.496-22.772c-7.396-1.472-21.024-11.892-23.434-17.61-2.838-6.733-4.741-7.246-3.245-13.556l43.787-184.644c4.267-17.992 9.443-31.532 20.157-39.252 16.052-11.593 32.948-7.174 50.19-23.787 11.492-11.061 19.815-31.511 24.966-61.334l53.088 21.334Z" fill="#fff"/><path d="M362.022 460.569c-5.969 25.179-62.428 31.709-126.005 14.568-63.577-17.14-110.23-51.972-104.261-77.151 5.972-25.193 62.318-31.25 125.895-14.109 63.577 17.14 110.343 51.499 104.371 76.692ZM392.669 106.392c-3.073 14.359-35.146 18.734-71.577 9.764-36.43-8.97-63.513-27.911-60.439-42.27 3.076-14.374 35.149-18.75 71.58-9.779 36.43 8.97 63.513 27.912 60.436 42.285Z" fill="#fff"/><path d="M384.305 98.619c-1.927 9.175-26.364 10.902-58.266 3.189-31.903-7.714-55.33-21.205-53.403-30.38 1.726-8.213 28.35-9.942 60.252-2.228 31.903 7.713 52.996 21.905 51.417 29.419Z" fill="#D2D2D2"/><path d="M353.437 290.529c-11.167 3.672-17.329-7.582-30.586-7.514-13.256.069-18.411 3.203-24.378 9.765-6.238 6.86-9.623 22.007-2.96 31.148 9.439 12.95 22.227 26.848 45.734 33.194 26.929 7.27 38.083-6.109 48.264-10.791l8.431-35.615c-.622-4.626-.975-14.528-5.051-22.167-5.095-9.548-16.353-14.816-23.733-11.607-8.414 3.658-7.18 10.779-15.721 13.587ZM238.551 155.877c-11.29 8.209-26.364 8.056-32.955 12.45 4.205 10.873 10.253 11.623 21.238 13.914 17.576 3.667 5.346 11.699 27.096 30.026 21.751 18.327 45.652 10.673 54.026-1.991 8.392-12.658-4.443-24.898-9.783-29.057-5.34-4.159 2.45-10.265 3.641-19.806 1.175-9.557-.334-15.037-11.505-24.62-7.46-6.396-18.823-9.656-30.077-8.119-6.243 11.925-11.609 19.88-21.681 27.203ZM193.25 306.945c-27.323-13.539-38.256-6.911-41.503 6.804l-19.611 83.172c-2.057 8.69-2.643 17.883 15.6 34.317 21.816 19.652 54.817 33.646 68.165 37.505 2.112-7.346-5.002-6.857-2.785-14.546 2.216-7.689 18.684-.418 34.885-7.322 9.367-3.991 22.799-24.322 7.833-42.042-16.164-19.137-43.032-12.923-43.475-23.899-.442-10.977 10.524-10.491 15.036-26.993 5.689-20.806-12.286-36.165-34.145-46.996Z" fill="#454545"/><path d="M114.833 205.566c15.209-.224 44.566-.797 62.726 1.955l-3.875 16.392c-23.274-.19-64.622-.142-69.302 19.822-4.68 19.965 73.228 63.048 165.04 85.32 91.812 22.273 181.007 23.622 187.736-1.879 4.485-16.994-32.889-39.543-51.304-47.621l2.994-15.848c11.969 4.561 37.115 14.961 49.113 21.534 14.028 7.685 64.675 34.717 58.993 58.959-6.184 26.382-89.859 40.637-251.877 3.394-144.888-33.306-228.655-86.692-221.468-117.352 4.512-19.251 50.09-24.364 71.224-24.676Z" fill="#FFE141"/></symbol></svg>