<?xml version="1.0" encoding="utf-8"?><svg xmlns="http://www.w3.org/2000/svg" xmlns:xlink="http://www.w3.org/1999/xlink"><symbol fill="none" viewBox="0 0 50 50" id="action_queue_cap_1" xmlns="http://www.w3.org/2000/svg"><rect y="12" width="16" height="20" rx="2" fill="#C57A09"/><rect x="14.573" y="6.573" width="16.854" height="20.854" rx="1.427" fill="#FAA21E"/><rect x="14.573" y="6.573" width="16.854" height="20.854" rx="1.427" fill="#fff" fill-opacity=".2"/><rect x="14.573" y="6.573" width="16.854" height="20.854" rx="1.427" stroke="#FAA21E" stroke-width="1.146" stroke-linecap="round"/><rect x="14.573" y="6.573" width="16.854" height="20.854" rx="1.427" stroke="#fff" stroke-opacity=".2" stroke-width="1.146" stroke-linecap="round"/><path d="M8 26v23m0 0H1m7 0h7" stroke="#C57A09" stroke-width="2" stroke-linecap="round"/><path d="M23 27v22m0 0h-8m8 0h8" stroke="#FAA21E" stroke-width="2" stroke-linecap="round"/><path d="M23 27v22m0 0h-8m8 0h8" stroke="#fff" stroke-opacity=".2" stroke-width="2" stroke-linecap="round"/><rect x="30.625" y=".625" width="18.75" height="22.75" rx="1.375" fill="#FAA21E"/><rect x="30.625" y=".625" width="18.75" height="22.75" rx="1.375" fill="#fff" fill-opacity=".8"/><rect x="30.625" y=".625" width="18.75" height="22.75" rx="1.375" stroke="#FAA21E" stroke-width="1.25" stroke-linecap="round"/><rect x="30.625" y=".625" width="18.75" height="22.75" rx="1.375" stroke="#fff" stroke-opacity=".8" stroke-width="1.25" stroke-linecap="round"/><path d="M40 20v29m0 0h-9m9 0h9" stroke="#FAA21E" stroke-width="2" stroke-linecap="round"/><path d="M40 20v29m0 0h-9m9 0h9" stroke="#fff" stroke-opacity=".8" stroke-width="2" stroke-linecap="round"/><path d="M41.543 2.844V20h-2.168V5.55l-4.371 1.595V5.188l6.2-2.344h.339ZM27.498 22.516V24h-9.307v-1.299l4.659-5.185c.572-.638 1.015-1.179 1.328-1.621.319-.45.54-.85.664-1.202.13-.358.195-.722.195-1.093a2.72 2.72 0 0 0-.293-1.27 2.195 2.195 0 0 0-.84-.918c-.37-.228-.82-.342-1.347-.342-.632 0-1.16.124-1.582.371-.417.241-.73.58-.938 1.016-.208.436-.312.938-.312 1.504h-1.807c0-.8.176-1.533.527-2.197a3.887 3.887 0 0 1 1.563-1.582c.69-.397 1.54-.596 2.549-.596.898 0 1.666.16 2.304.479.638.312 1.127.755 1.465 1.328.345.566.518 1.23.518 1.992a4 4 0 0 1-.215 1.27 6.44 6.44 0 0 1-.576 1.269c-.241.423-.524.84-.85 1.25-.319.41-.66.814-1.025 1.21l-3.809 4.132h7.129ZM6.055 21.602h1.03c.506 0 .923-.084 1.25-.25a1.72 1.72 0 0 0 .743-.696c.167-.297.25-.63.25-1 0-.437-.073-.804-.219-1.101a1.465 1.465 0 0 0-.656-.672c-.292-.151-.661-.227-1.11-.227-.405 0-.765.081-1.077.242-.308.157-.55.38-.727.672a1.994 1.994 0 0 0-.258 1.032H3.836c0-.579.146-1.105.437-1.579.292-.474.701-.851 1.227-1.132.531-.282 1.146-.422 1.844-.422.687 0 1.289.122 1.804.367.516.24.917.599 1.204 1.078.286.474.43 1.065.43 1.773 0 .287-.069.594-.204.922-.13.323-.336.625-.617.907-.276.28-.635.513-1.078.695-.443.177-.974.266-1.594.266H6.055v-.875Zm0 1.187v-.867h1.234c.724 0 1.323.086 1.797.258.474.172.846.4 1.117.687.276.287.469.602.578.945.115.339.172.678.172 1.016 0 .531-.091 1.003-.273 1.414-.177.412-.43.76-.758 1.047a3.24 3.24 0 0 1-1.14.648 4.497 4.497 0 0 1-1.43.22c-.495 0-.961-.071-1.399-.212a3.62 3.62 0 0 1-1.148-.61 2.852 2.852 0 0 1-.782-.991 3.12 3.12 0 0 1-.28-1.352h1.445c0 .396.085.742.257 1.04.177.296.427.528.75.695.328.161.714.242 1.157.242.442 0 .822-.076 1.14-.227.323-.156.57-.39.742-.703.177-.312.266-.706.266-1.18s-.099-.862-.297-1.164a1.742 1.742 0 0 0-.844-.68c-.359-.15-.783-.226-1.273-.226H6.055Z" fill="#152242"/></symbol><symbol fill="none" viewBox="0 0 50 50" id="action_queue_cap_2" xmlns="http://www.w3.org/2000/svg"><rect y="12" width="16" height="20" rx="2" fill="#C57A09"/><rect x="14.573" y="6.573" width="16.854" height="20.854" rx="1.427" fill="#FAA21E"/><rect x="14.573" y="6.573" width="16.854" height="20.854" rx="1.427" fill="#fff" fill-opacity=".2"/><rect x="14.573" y="6.573" width="16.854" height="20.854" rx="1.427" stroke="#FAA21E" stroke-width="1.146" stroke-linecap="round"/><rect x="14.573" y="6.573" width="16.854" height="20.854" rx="1.427" stroke="#fff" stroke-opacity=".2" stroke-width="1.146" stroke-linecap="round"/><path d="M8 26v23m0 0H1m7 0h7" stroke="#C57A09" stroke-width="2" stroke-linecap="round"/><path d="M23 27v22m0 0h-8m8 0h8" stroke="#FAA21E" stroke-width="2" stroke-linecap="round"/><path d="M23 27v22m0 0h-8m8 0h8" stroke="#fff" stroke-opacity=".2" stroke-width="2" stroke-linecap="round"/><rect x="30.625" y=".625" width="18.75" height="22.75" rx="1.375" fill="#FAA21E"/><rect x="30.625" y=".625" width="18.75" height="22.75" rx="1.375" fill="#fff" fill-opacity=".8"/><rect x="30.625" y=".625" width="18.75" height="22.75" rx="1.375" stroke="#FAA21E" stroke-width="1.25" stroke-linecap="round"/><rect x="30.625" y=".625" width="18.75" height="22.75" rx="1.375" stroke="#fff" stroke-opacity=".8" stroke-width="1.25" stroke-linecap="round"/><path d="M40 20v29m0 0h-9m9 0h9" stroke="#FAA21E" stroke-width="2" stroke-linecap="round"/><path d="M40 20v29m0 0h-9m9 0h9" stroke="#fff" stroke-opacity=".8" stroke-width="2" stroke-linecap="round"/><path d="M41.543 2.844V20h-2.168V5.55l-4.371 1.595V5.188l6.2-2.344h.339ZM27.498 22.516V24h-9.307v-1.299l4.659-5.185c.572-.638 1.015-1.179 1.328-1.621.319-.45.54-.85.664-1.202.13-.358.195-.722.195-1.093a2.72 2.72 0 0 0-.293-1.27 2.195 2.195 0 0 0-.84-.918c-.37-.228-.82-.342-1.347-.342-.632 0-1.16.124-1.582.371-.417.241-.73.58-.938 1.016-.208.436-.312.938-.312 1.504h-1.807c0-.8.176-1.533.527-2.197a3.887 3.887 0 0 1 1.563-1.582c.69-.397 1.54-.596 2.549-.596.898 0 1.666.16 2.304.479.638.312 1.127.755 1.465 1.328.345.566.518 1.23.518 1.992a4 4 0 0 1-.215 1.27 6.44 6.44 0 0 1-.576 1.269c-.241.423-.524.84-.85 1.25-.319.41-.66.814-1.025 1.21l-3.809 4.132h7.129ZM6.055 21.602h1.03c.506 0 .923-.084 1.25-.25a1.72 1.72 0 0 0 .743-.696c.167-.297.25-.63.25-1 0-.437-.073-.804-.219-1.101a1.465 1.465 0 0 0-.656-.672c-.292-.151-.661-.227-1.11-.227-.405 0-.765.081-1.077.242-.308.157-.55.38-.727.672a1.994 1.994 0 0 0-.258 1.032H3.836c0-.579.146-1.105.437-1.579.292-.474.701-.851 1.227-1.132.531-.282 1.146-.422 1.844-.422.687 0 1.289.122 1.804.367.516.24.917.599 1.204 1.078.286.474.43 1.065.43 1.773 0 .287-.069.594-.204.922-.13.323-.336.625-.617.907-.276.28-.635.513-1.078.695-.443.177-.974.266-1.594.266H6.055v-.875Zm0 1.187v-.867h1.234c.724 0 1.323.086 1.797.258.474.172.846.4 1.117.687.276.287.469.602.578.945.115.339.172.678.172 1.016 0 .531-.091 1.003-.273 1.414-.177.412-.43.76-.758 1.047a3.24 3.24 0 0 1-1.14.648 4.497 4.497 0 0 1-1.43.22c-.495 0-.961-.071-1.399-.212a3.62 3.62 0 0 1-1.148-.61 2.852 2.852 0 0 1-.782-.991 3.12 3.12 0 0 1-.28-1.352h1.445c0 .396.085.742.257 1.04.177.296.427.528.75.695.328.161.714.242 1.157.242.442 0 .822-.076 1.14-.227.323-.156.57-.39.742-.703.177-.312.266-.706.266-1.18s-.099-.862-.297-1.164a1.742 1.742 0 0 0-.844-.68c-.359-.15-.783-.226-1.273-.226H6.055Z" fill="#152242"/></symbol><symbol fill="none" viewBox="0 0 50 50" id="action_queue_cap_3" xmlns="http://www.w3.org/2000/svg"><rect y="12" width="16" height="20" rx="2" fill="#C57A09"/><rect x="14.573" y="6.573" width="16.854" height="20.854" rx="1.427" fill="#FAA21E"/><rect x="14.573" y="6.573" width="16.854" height="20.854" rx="1.427" fill="#fff" fill-opacity=".2"/><rect x="14.573" y="6.573" width="16.854" height="20.854" rx="1.427" stroke="#FAA21E" stroke-width="1.146" stroke-linecap="round"/><rect x="14.573" y="6.573" width="16.854" height="20.854" rx="1.427" stroke="#fff" stroke-opacity=".2" stroke-width="1.146" stroke-linecap="round"/><path d="M8 26v23m0 0H1m7 0h7" stroke="#C57A09" stroke-width="2" stroke-linecap="round"/><path d="M23 27v22m0 0h-8m8 0h8" stroke="#FAA21E" stroke-width="2" stroke-linecap="round"/><path d="M23 27v22m0 0h-8m8 0h8" stroke="#fff" stroke-opacity=".2" stroke-width="2" stroke-linecap="round"/><rect x="30.625" y=".625" width="18.75" height="22.75" rx="1.375" fill="#FAA21E"/><rect x="30.625" y=".625" width="18.75" height="22.75" rx="1.375" fill="#fff" fill-opacity=".8"/><rect x="30.625" y=".625" width="18.75" height="22.75" rx="1.375" stroke="#FAA21E" stroke-width="1.25" stroke-linecap="round"/><rect x="30.625" y=".625" width="18.75" height="22.75" rx="1.375" stroke="#fff" stroke-opacity=".8" stroke-width="1.25" stroke-linecap="round"/><path d="M40 20v29m0 0h-9m9 0h9" stroke="#FAA21E" stroke-width="2" stroke-linecap="round"/><path d="M40 20v29m0 0h-9m9 0h9" stroke="#fff" stroke-opacity=".8" stroke-width="2" stroke-linecap="round"/><path d="M41.543 2.844V20h-2.168V5.55l-4.371 1.595V5.188l6.2-2.344h.339ZM27.498 22.516V24h-9.307v-1.299l4.659-5.185c.572-.638 1.015-1.179 1.328-1.621.319-.45.54-.85.664-1.202.13-.358.195-.722.195-1.093a2.72 2.72 0 0 0-.293-1.27 2.195 2.195 0 0 0-.84-.918c-.37-.228-.82-.342-1.347-.342-.632 0-1.16.124-1.582.371-.417.241-.73.58-.938 1.016-.208.436-.312.938-.312 1.504h-1.807c0-.8.176-1.533.527-2.197a3.887 3.887 0 0 1 1.563-1.582c.69-.397 1.54-.596 2.549-.596.898 0 1.666.16 2.304.479.638.312 1.127.755 1.465 1.328.345.566.518 1.23.518 1.992a4 4 0 0 1-.215 1.27 6.44 6.44 0 0 1-.576 1.269c-.241.423-.524.84-.85 1.25-.319.41-.66.814-1.025 1.21l-3.809 4.132h7.129ZM6.055 21.602h1.03c.506 0 .923-.084 1.25-.25a1.72 1.72 0 0 0 .743-.696c.167-.297.25-.63.25-1 0-.437-.073-.804-.219-1.101a1.465 1.465 0 0 0-.656-.672c-.292-.151-.661-.227-1.11-.227-.405 0-.765.081-1.077.242-.308.157-.55.38-.727.672a1.994 1.994 0 0 0-.258 1.032H3.836c0-.579.146-1.105.437-1.579.292-.474.701-.851 1.227-1.132.531-.282 1.146-.422 1.844-.422.687 0 1.289.122 1.804.367.516.24.917.599 1.204 1.078.286.474.43 1.065.43 1.773 0 .287-.069.594-.204.922-.13.323-.336.625-.617.907-.276.28-.635.513-1.078.695-.443.177-.974.266-1.594.266H6.055v-.875Zm0 1.187v-.867h1.234c.724 0 1.323.086 1.797.258.474.172.846.4 1.117.687.276.287.469.602.578.945.115.339.172.678.172 1.016 0 .531-.091 1.003-.273 1.414-.177.412-.43.76-.758 1.047a3.24 3.24 0 0 1-1.14.648 4.497 4.497 0 0 1-1.43.22c-.495 0-.961-.071-1.399-.212a3.62 3.62 0 0 1-1.148-.61 2.852 2.852 0 0 1-.782-.991 3.12 3.12 0 0 1-.28-1.352h1.445c0 .396.085.742.257 1.04.177.296.427.528.75.695.328.161.714.242 1.157.242.442 0 .822-.076 1.14-.227.323-.156.57-.39.742-.703.177-.312.266-.706.266-1.18s-.099-.862-.297-1.164a1.742 1.742 0 0 0-.844-.68c-.359-.15-.783-.226-1.273-.226H6.055Z" fill="#152242"/></symbol><symbol fill="none" viewBox="0 0 50 50" id="action_queue_cap_4" xmlns="http://www.w3.org/2000/svg"><rect y="12" width="16" height="20" rx="2" fill="#C57A09"/><rect x="14.573" y="6.573" width="16.854" height="20.854" rx="1.427" fill="#FAA21E"/><rect x="14.573" y="6.573" width="16.854" height="20.854" rx="1.427" fill="#fff" fill-opacity=".2"/><rect x="14.573" y="6.573" width="16.854" height="20.854" rx="1.427" stroke="#FAA21E" stroke-width="1.146" stroke-linecap="round"/><rect x="14.573" y="6.573" width="16.854" height="20.854" rx="1.427" stroke="#fff" stroke-opacity=".2" stroke-width="1.146" stroke-linecap="round"/><path d="M8 26v23m0 0H1m7 0h7" stroke="#C57A09" stroke-width="2" stroke-linecap="round"/><path d="M23 27v22m0 0h-8m8 0h8" stroke="#FAA21E" stroke-width="2" stroke-linecap="round"/><path d="M23 27v22m0 0h-8m8 0h8" stroke="#fff" stroke-opacity=".2" stroke-width="2" stroke-linecap="round"/><rect x="30.625" y=".625" width="18.75" height="22.75" rx="1.375" fill="#FAA21E"/><rect x="30.625" y=".625" width="18.75" height="22.75" rx="1.375" fill="#fff" fill-opacity=".8"/><rect x="30.625" y=".625" width="18.75" height="22.75" rx="1.375" stroke="#FAA21E" stroke-width="1.25" stroke-linecap="round"/><rect x="30.625" y=".625" width="18.75" height="22.75" rx="1.375" stroke="#fff" stroke-opacity=".8" stroke-width="1.25" stroke-linecap="round"/><path d="M40 20v29m0 0h-9m9 0h9" stroke="#FAA21E" stroke-width="2" stroke-linecap="round"/><path d="M40 20v29m0 0h-9m9 0h9" stroke="#fff" stroke-opacity=".8" stroke-width="2" stroke-linecap="round"/><path d="M41.543 2.844V20h-2.168V5.55l-4.371 1.595V5.188l6.2-2.344h.339ZM27.498 22.516V24h-9.307v-1.299l4.659-5.185c.572-.638 1.015-1.179 1.328-1.621.319-.45.54-.85.664-1.202.13-.358.195-.722.195-1.093a2.72 2.72 0 0 0-.293-1.27 2.195 2.195 0 0 0-.84-.918c-.37-.228-.82-.342-1.347-.342-.632 0-1.16.124-1.582.371-.417.241-.73.58-.938 1.016-.208.436-.312.938-.312 1.504h-1.807c0-.8.176-1.533.527-2.197a3.887 3.887 0 0 1 1.563-1.582c.69-.397 1.54-.596 2.549-.596.898 0 1.666.16 2.304.479.638.312 1.127.755 1.465 1.328.345.566.518 1.23.518 1.992a4 4 0 0 1-.215 1.27 6.44 6.44 0 0 1-.576 1.269c-.241.423-.524.84-.85 1.25-.319.41-.66.814-1.025 1.21l-3.809 4.132h7.129ZM6.055 21.602h1.03c.506 0 .923-.084 1.25-.25a1.72 1.72 0 0 0 .743-.696c.167-.297.25-.63.25-1 0-.437-.073-.804-.219-1.101a1.465 1.465 0 0 0-.656-.672c-.292-.151-.661-.227-1.11-.227-.405 0-.765.081-1.077.242-.308.157-.55.38-.727.672a1.994 1.994 0 0 0-.258 1.032H3.836c0-.579.146-1.105.437-1.579.292-.474.701-.851 1.227-1.132.531-.282 1.146-.422 1.844-.422.687 0 1.289.122 1.804.367.516.24.917.599 1.204 1.078.286.474.43 1.065.43 1.773 0 .287-.069.594-.204.922-.13.323-.336.625-.617.907-.276.28-.635.513-1.078.695-.443.177-.974.266-1.594.266H6.055v-.875Zm0 1.187v-.867h1.234c.724 0 1.323.086 1.797.258.474.172.846.4 1.117.687.276.287.469.602.578.945.115.339.172.678.172 1.016 0 .531-.091 1.003-.273 1.414-.177.412-.43.76-.758 1.047a3.24 3.24 0 0 1-1.14.648 4.497 4.497 0 0 1-1.43.22c-.495 0-.961-.071-1.399-.212a3.62 3.62 0 0 1-1.148-.61 2.852 2.852 0 0 1-.782-.991 3.12 3.12 0 0 1-.28-1.352h1.445c0 .396.085.742.257 1.04.177.296.427.528.75.695.328.161.714.242 1.157.242.442 0 .822-.076 1.14-.227.323-.156.57-.39.742-.703.177-.312.266-.706.266-1.18s-.099-.862-.297-1.164a1.742 1.742 0 0 0-.844-.68c-.359-.15-.783-.226-1.273-.226H6.055Z" fill="#152242"/></symbol><symbol fill="none" viewBox="0 0 50 50" id="market_listing_cap_1" xmlns="http://www.w3.org/2000/svg"><rect width="50" height="4" rx="2" fill="#C57A09"/><path stroke="#C57A09" stroke-width="2" d="M15 0v12M35 0v12"/><rect x="7" y="12" width="36" height="36" rx="2" fill="#898989"/><rect x="7" y="12" width="36" height="36" rx="2" fill="#fff" fill-opacity=".8"/><path d="m16.151 40.68 13.67-23.676 3.865 2.232c2.657 1.534 3.716 4.722 3.845 6.73.194 3.01-.293 6.087-2.326 9.609-2.371 4.107-4.733 5.965-7.438 7.302-2.506 1.24-5.576 1.29-7.75.035L16.15 40.68Z" fill="#FAA21E"/><path d="m16.151 40.68 13.67-23.676 3.865 2.232c2.657 1.534 3.716 4.722 3.845 6.73.194 3.01-.293 6.087-2.326 9.609-2.371 4.107-4.733 5.965-7.438 7.302-2.506 1.24-5.576 1.29-7.75.035L16.15 40.68Z" fill="#000" fill-opacity=".1"/><ellipse cx="22.997" cy="28.851" rx="9.503" ry="13.668" transform="rotate(30.016 22.997 28.85)" fill="#FAA21E"/><ellipse cx="22.997" cy="28.851" rx="9.503" ry="13.668" transform="rotate(30.016 22.997 28.85)" fill="#fff" fill-opacity=".2"/><ellipse cx="22.425" cy="28.498" rx="7.353" ry="11.42" transform="rotate(30.016 22.425 28.498)" fill="#FAA21E"/><ellipse cx="22.425" cy="28.498" rx="7.353" ry="11.42" transform="rotate(30.016 22.425 28.498)" fill="#000" fill-opacity=".1"/><path d="M27.655 23.94c.285-.493-.906-1.35-1.628-1.768-.723-.417-2.067-1.008-2.345-.526-.153.265.067.51.106.651-.14.313-.558 1.049-1.102 1.49-.68.553-1.4.428-1.98.511-.656.094-1.155.75-1.36 1.105l-3.274 5.67c-.063.318.324 1.235 1.012 2.002.659.735 2.736 1.934 3.792 2.19.96.231 2.266.245 2.42-.021l3.273-5.67c.222-.384.635-1.1.277-1.73-.358-.633-.584-1.283-.548-1.971.029-.55.488-1.332.74-1.7.232.017.49-.012.617-.233Z" fill="#FAA21E"/><path d="M27.655 23.94c.285-.493-.906-1.35-1.628-1.768-.723-.417-2.067-1.008-2.345-.526-.153.265.067.51.106.651-.14.313-.558 1.049-1.102 1.49-.68.553-1.4.428-1.98.511-.656.094-1.155.75-1.36 1.105l-3.274 5.67c-.063.318.324 1.235 1.012 2.002.659.735 2.736 1.934 3.792 2.19.96.231 2.266.245 2.42-.021l3.273-5.67c.222-.384.635-1.1.277-1.73-.358-.633-.584-1.283-.548-1.971.029-.55.488-1.332.74-1.7.232.017.49-.012.617-.233Z" fill="#fff" fill-opacity=".2"/><ellipse cx="25.72" cy="22.738" rx="1.83" ry=".464" transform="matrix(.86652 .49865 -.49962 .86652 14.793 -9.79)" fill="#FAA21E"/><ellipse cx="25.72" cy="22.738" rx="1.83" ry=".464" transform="matrix(.86652 .49865 -.49962 .86652 14.793 -9.79)" fill="#000" fill-opacity=".1"/></symbol><symbol fill="none" viewBox="0 0 50 50" id="market_listing_cap_2" xmlns="http://www.w3.org/2000/svg"><rect width="50" height="4" rx="2" fill="#C57A09"/><path stroke="#C57A09" stroke-width="2" d="M15 0v12M35 0v12"/><rect x="7" y="12" width="36" height="36" rx="2" fill="#898989"/><rect x="7" y="12" width="36" height="36" rx="2" fill="#fff" fill-opacity=".8"/><path d="m16.151 40.68 13.67-23.676 3.865 2.232c2.657 1.534 3.716 4.722 3.845 6.73.194 3.01-.293 6.087-2.326 9.609-2.371 4.107-4.733 5.965-7.438 7.302-2.506 1.24-5.576 1.29-7.75.035L16.15 40.68Z" fill="#FAA21E"/><path d="m16.151 40.68 13.67-23.676 3.865 2.232c2.657 1.534 3.716 4.722 3.845 6.73.194 3.01-.293 6.087-2.326 9.609-2.371 4.107-4.733 5.965-7.438 7.302-2.506 1.24-5.576 1.29-7.75.035L16.15 40.68Z" fill="#000" fill-opacity=".1"/><ellipse cx="22.997" cy="28.851" rx="9.503" ry="13.668" transform="rotate(30.016 22.997 28.85)" fill="#FAA21E"/><ellipse cx="22.997" cy="28.851" rx="9.503" ry="13.668" transform="rotate(30.016 22.997 28.85)" fill="#fff" fill-opacity=".2"/><ellipse cx="22.425" cy="28.498" rx="7.353" ry="11.42" transform="rotate(30.016 22.425 28.498)" fill="#FAA21E"/><ellipse cx="22.425" cy="28.498" rx="7.353" ry="11.42" transform="rotate(30.016 22.425 28.498)" fill="#000" fill-opacity=".1"/><path d="M27.655 23.94c.285-.493-.906-1.35-1.628-1.768-.723-.417-2.067-1.008-2.345-.526-.153.265.067.51.106.651-.14.313-.558 1.049-1.102 1.49-.68.553-1.4.428-1.98.511-.656.094-1.155.75-1.36 1.105l-3.274 5.67c-.063.318.324 1.235 1.012 2.002.659.735 2.736 1.934 3.792 2.19.96.231 2.266.245 2.42-.021l3.273-5.67c.222-.384.635-1.1.277-1.73-.358-.633-.584-1.283-.548-1.971.029-.55.488-1.332.74-1.7.232.017.49-.012.617-.233Z" fill="#FAA21E"/><path d="M27.655 23.94c.285-.493-.906-1.35-1.628-1.768-.723-.417-2.067-1.008-2.345-.526-.153.265.067.51.106.651-.14.313-.558 1.049-1.102 1.49-.68.553-1.4.428-1.98.511-.656.094-1.155.75-1.36 1.105l-3.274 5.67c-.063.318.324 1.235 1.012 2.002.659.735 2.736 1.934 3.792 2.19.96.231 2.266.245 2.42-.021l3.273-5.67c.222-.384.635-1.1.277-1.73-.358-.633-.584-1.283-.548-1.971.029-.55.488-1.332.74-1.7.232.017.49-.012.617-.233Z" fill="#fff" fill-opacity=".2"/><ellipse cx="25.72" cy="22.738" rx="1.83" ry=".464" transform="matrix(.86652 .49865 -.49962 .86652 14.793 -9.79)" fill="#FAA21E"/><ellipse cx="25.72" cy="22.738" rx="1.83" ry=".464" transform="matrix(.86652 .49865 -.49962 .86652 14.793 -9.79)" fill="#000" fill-opacity=".1"/></symbol><symbol fill="none" viewBox="0 0 50 50" id="market_listing_cap_3" xmlns="http://www.w3.org/2000/svg"><rect width="50" height="4" rx="2" fill="#C57A09"/><path stroke="#C57A09" stroke-width="2" d="M15 0v12M35 0v12"/><rect x="7" y="12" width="36" height="36" rx="2" fill="#898989"/><rect x="7" y="12" width="36" height="36" rx="2" fill="#fff" fill-opacity=".8"/><path d="m16.151 40.68 13.67-23.676 3.865 2.232c2.657 1.534 3.716 4.722 3.845 6.73.194 3.01-.293 6.087-2.326 9.609-2.371 4.107-4.733 5.965-7.438 7.302-2.506 1.24-5.576 1.29-7.75.035L16.15 40.68Z" fill="#FAA21E"/><path d="m16.151 40.68 13.67-23.676 3.865 2.232c2.657 1.534 3.716 4.722 3.845 6.73.194 3.01-.293 6.087-2.326 9.609-2.371 4.107-4.733 5.965-7.438 7.302-2.506 1.24-5.576 1.29-7.75.035L16.15 40.68Z" fill="#000" fill-opacity=".1"/><ellipse cx="22.997" cy="28.851" rx="9.503" ry="13.668" transform="rotate(30.016 22.997 28.85)" fill="#FAA21E"/><ellipse cx="22.997" cy="28.851" rx="9.503" ry="13.668" transform="rotate(30.016 22.997 28.85)" fill="#fff" fill-opacity=".2"/><ellipse cx="22.425" cy="28.498" rx="7.353" ry="11.42" transform="rotate(30.016 22.425 28.498)" fill="#FAA21E"/><ellipse cx="22.425" cy="28.498" rx="7.353" ry="11.42" transform="rotate(30.016 22.425 28.498)" fill="#000" fill-opacity=".1"/><path d="M27.655 23.94c.285-.493-.906-1.35-1.628-1.768-.723-.417-2.067-1.008-2.345-.526-.153.265.067.51.106.651-.14.313-.558 1.049-1.102 1.49-.68.553-1.4.428-1.98.511-.656.094-1.155.75-1.36 1.105l-3.274 5.67c-.063.318.324 1.235 1.012 2.002.659.735 2.736 1.934 3.792 2.19.96.231 2.266.245 2.42-.021l3.273-5.67c.222-.384.635-1.1.277-1.73-.358-.633-.584-1.283-.548-1.971.029-.55.488-1.332.74-1.7.232.017.49-.012.617-.233Z" fill="#FAA21E"/><path d="M27.655 23.94c.285-.493-.906-1.35-1.628-1.768-.723-.417-2.067-1.008-2.345-.526-.153.265.067.51.106.651-.14.313-.558 1.049-1.102 1.49-.68.553-1.4.428-1.98.511-.656.094-1.155.75-1.36 1.105l-3.274 5.67c-.063.318.324 1.235 1.012 2.002.659.735 2.736 1.934 3.792 2.19.96.231 2.266.245 2.42-.021l3.273-5.67c.222-.384.635-1.1.277-1.73-.358-.633-.584-1.283-.548-1.971.029-.55.488-1.332.74-1.7.232.017.49-.012.617-.233Z" fill="#fff" fill-opacity=".2"/><ellipse cx="25.72" cy="22.738" rx="1.83" ry=".464" transform="matrix(.86652 .49865 -.49962 .86652 14.793 -9.79)" fill="#FAA21E"/><ellipse cx="25.72" cy="22.738" rx="1.83" ry=".464" transform="matrix(.86652 .49865 -.49962 .86652 14.793 -9.79)" fill="#000" fill-opacity=".1"/></symbol><symbol fill="none" viewBox="0 0 50 50" id="market_listing_cap_4" xmlns="http://www.w3.org/2000/svg"><rect width="50" height="4" rx="2" fill="#C57A09"/><path stroke="#C57A09" stroke-width="2" d="M15 0v12M35 0v12"/><rect x="7" y="12" width="36" height="36" rx="2" fill="#898989"/><rect x="7" y="12" width="36" height="36" rx="2" fill="#fff" fill-opacity=".8"/><path d="m16.151 40.68 13.67-23.676 3.865 2.232c2.657 1.534 3.716 4.722 3.845 6.73.194 3.01-.293 6.087-2.326 9.609-2.371 4.107-4.733 5.965-7.438 7.302-2.506 1.24-5.576 1.29-7.75.035L16.15 40.68Z" fill="#FAA21E"/><path d="m16.151 40.68 13.67-23.676 3.865 2.232c2.657 1.534 3.716 4.722 3.845 6.73.194 3.01-.293 6.087-2.326 9.609-2.371 4.107-4.733 5.965-7.438 7.302-2.506 1.24-5.576 1.29-7.75.035L16.15 40.68Z" fill="#000" fill-opacity=".1"/><ellipse cx="22.997" cy="28.851" rx="9.503" ry="13.668" transform="rotate(30.016 22.997 28.85)" fill="#FAA21E"/><ellipse cx="22.997" cy="28.851" rx="9.503" ry="13.668" transform="rotate(30.016 22.997 28.85)" fill="#fff" fill-opacity=".2"/><ellipse cx="22.425" cy="28.498" rx="7.353" ry="11.42" transform="rotate(30.016 22.425 28.498)" fill="#FAA21E"/><ellipse cx="22.425" cy="28.498" rx="7.353" ry="11.42" transform="rotate(30.016 22.425 28.498)" fill="#000" fill-opacity=".1"/><path d="M27.655 23.94c.285-.493-.906-1.35-1.628-1.768-.723-.417-2.067-1.008-2.345-.526-.153.265.067.51.106.651-.14.313-.558 1.049-1.102 1.49-.68.553-1.4.428-1.98.511-.656.094-1.155.75-1.36 1.105l-3.274 5.67c-.063.318.324 1.235 1.012 2.002.659.735 2.736 1.934 3.792 2.19.96.231 2.266.245 2.42-.021l3.273-5.67c.222-.384.635-1.1.277-1.73-.358-.633-.584-1.283-.548-1.971.029-.55.488-1.332.74-1.7.232.017.49-.012.617-.233Z" fill="#FAA21E"/><path d="M27.655 23.94c.285-.493-.906-1.35-1.628-1.768-.723-.417-2.067-1.008-2.345-.526-.153.265.067.51.106.651-.14.313-.558 1.049-1.102 1.49-.68.553-1.4.428-1.98.511-.656.094-1.155.75-1.36 1.105l-3.274 5.67c-.063.318.324 1.235 1.012 2.002.659.735 2.736 1.934 3.792 2.19.96.231 2.266.245 2.42-.021l3.273-5.67c.222-.384.635-1.1.277-1.73-.358-.633-.584-1.283-.548-1.971.029-.55.488-1.332.74-1.7.232.017.49-.012.617-.233Z" fill="#fff" fill-opacity=".2"/><ellipse cx="25.72" cy="22.738" rx="1.83" ry=".464" transform="matrix(.86652 .49865 -.49962 .86652 14.793 -9.79)" fill="#FAA21E"/><ellipse cx="25.72" cy="22.738" rx="1.83" ry=".464" transform="matrix(.86652 .49865 -.49962 .86652 14.793 -9.79)" fill="#000" fill-opacity=".1"/></symbol><symbol fill="none" viewBox="0 0 50 50" id="market_listing_cap_5" xmlns="http://www.w3.org/2000/svg"><rect width="50" height="4" rx="2" fill="#C57A09"/><path stroke="#C57A09" stroke-width="2" d="M15 0v12M35 0v12"/><rect x="7" y="12" width="36" height="36" rx="2" fill="#898989"/><rect x="7" y="12" width="36" height="36" rx="2" fill="#fff" fill-opacity=".8"/><path d="m16.151 40.68 13.67-23.676 3.865 2.232c2.657 1.534 3.716 4.722 3.845 6.73.194 3.01-.293 6.087-2.326 9.609-2.371 4.107-4.733 5.965-7.438 7.302-2.506 1.24-5.576 1.29-7.75.035L16.15 40.68Z" fill="#FAA21E"/><path d="m16.151 40.68 13.67-23.676 3.865 2.232c2.657 1.534 3.716 4.722 3.845 6.73.194 3.01-.293 6.087-2.326 9.609-2.371 4.107-4.733 5.965-7.438 7.302-2.506 1.24-5.576 1.29-7.75.035L16.15 40.68Z" fill="#000" fill-opacity=".1"/><ellipse cx="22.997" cy="28.851" rx="9.503" ry="13.668" transform="rotate(30.016 22.997 28.85)" fill="#FAA21E"/><ellipse cx="22.997" cy="28.851" rx="9.503" ry="13.668" transform="rotate(30.016 22.997 28.85)" fill="#fff" fill-opacity=".2"/><ellipse cx="22.425" cy="28.498" rx="7.353" ry="11.42" transform="rotate(30.016 22.425 28.498)" fill="#FAA21E"/><ellipse cx="22.425" cy="28.498" rx="7.353" ry="11.42" transform="rotate(30.016 22.425 28.498)" fill="#000" fill-opacity=".1"/><path d="M27.655 23.94c.285-.493-.906-1.35-1.628-1.768-.723-.417-2.067-1.008-2.345-.526-.153.265.067.51.106.651-.14.313-.558 1.049-1.102 1.49-.68.553-1.4.428-1.98.511-.656.094-1.155.75-1.36 1.105l-3.274 5.67c-.063.318.324 1.235 1.012 2.002.659.735 2.736 1.934 3.792 2.19.96.231 2.266.245 2.42-.021l3.273-5.67c.222-.384.635-1.1.277-1.73-.358-.633-.584-1.283-.548-1.971.029-.55.488-1.332.74-1.7.232.017.49-.012.617-.233Z" fill="#FAA21E"/><path d="M27.655 23.94c.285-.493-.906-1.35-1.628-1.768-.723-.417-2.067-1.008-2.345-.526-.153.265.067.51.106.651-.14.313-.558 1.049-1.102 1.49-.68.553-1.4.428-1.98.511-.656.094-1.155.75-1.36 1.105l-3.274 5.67c-.063.318.324 1.235 1.012 2.002.659.735 2.736 1.934 3.792 2.19.96.231 2.266.245 2.42-.021l3.273-5.67c.222-.384.635-1.1.277-1.73-.358-.633-.584-1.283-.548-1.971.029-.55.488-1.332.74-1.7.232.017.49-.012.617-.233Z" fill="#fff" fill-opacity=".2"/><ellipse cx="25.72" cy="22.738" rx="1.83" ry=".464" transform="matrix(.86652 .49865 -.49962 .86652 14.793 -9.79)" fill="#FAA21E"/><ellipse cx="25.72" cy="22.738" rx="1.83" ry=".464" transform="matrix(.86652 .49865 -.49962 .86652 14.793 -9.79)" fill="#000" fill-opacity=".1"/></symbol><symbol fill="none" viewBox="0 0 50 50" id="offline_hour_cap_1" xmlns="http://www.w3.org/2000/svg"><path d="M11 9.236c-.5-2.264 0-6.03 0-7.236h28c0 2.067.5 5.006 0 7.753s-2.51 6.117-4.582 8.747C32.345 21.13 28 22.933 28 25s3.873 3.876 6.418 6.46C36.964 34.046 38.5 37.5 39 40.248c.37 2.034 0 6.03 0 7.753H11c0-1.723-.444-5.312 0-7.753.5-2.747 1.954-6.202 4.5-8.786C18.045 28.876 22 27.067 22 25s-4-3.5-6.5-6.5-4-7-4.5-9.264Z" fill="#1D8CE0"/><path d="M11 9.236c-.5-2.264 0-6.03 0-7.236h28c0 2.067.5 5.006 0 7.753s-2.51 6.117-4.582 8.747C32.345 21.13 28 22.933 28 25s3.873 3.876 6.418 6.46C36.964 34.046 38.5 37.5 39 40.248c.37 2.034 0 6.03 0 7.753H11c0-1.723-.444-5.312 0-7.753.5-2.747 1.954-6.202 4.5-8.786C18.045 28.876 22 27.067 22 25s-4-3.5-6.5-6.5-4-7-4.5-9.264Z" fill="#fff" fill-opacity=".95"/><path d="M11 9.236c-.5-2.264 0-6.03 0-7.236h28c0 2.067.5 5.006 0 7.753s-2.51 6.117-4.582 8.747C32.345 21.13 28 22.933 28 25s3.873 3.876 6.418 6.46C36.964 34.046 38.5 37.5 39 40.248c.37 2.034 0 6.03 0 7.753H11c0-1.723-.444-5.312 0-7.753.5-2.747 1.954-6.202 4.5-8.786C18.045 28.876 22 27.067 22 25s-4-3.5-6.5-6.5-4-7-4.5-9.264Z" stroke="#1D8CE0"/><path d="M11 9.236c-.5-2.264 0-6.03 0-7.236h28c0 2.067.5 5.006 0 7.753s-2.51 6.117-4.582 8.747C32.345 21.13 28 22.933 28 25s3.873 3.876 6.418 6.46C36.964 34.046 38.5 37.5 39 40.248c.37 2.034 0 6.03 0 7.753H11c0-1.723-.444-5.312 0-7.753.5-2.747 1.954-6.202 4.5-8.786C18.045 28.876 22 27.067 22 25s-4-3.5-6.5-6.5-4-7-4.5-9.264Z" stroke="#000" stroke-opacity=".2"/><path d="M35.5 11h-21c1 3 1.5 5 4 7s5.5 4 6.5 6c1-2 4.5-4.5 6.5-6 2.308-1.73 3-4 4-7Z" fill="#1D8CE0"/><path d="M35.5 11h-21c1 3 1.5 5 4 7s5.5 4 6.5 6c1-2 4.5-4.5 6.5-6 2.308-1.73 3-4 4-7Z" fill="#fff" fill-opacity=".2"/><circle cx="25" cy="28.5" r="1.5" fill="#1D8CE0"/><circle cx="25" cy="33.5" r="1.5" fill="#1D8CE0"/><path d="M17.995 40.171C15.599 42.272 15 45.6 15 47h19.966c.167-1.226-.2-4.307-2.995-6.829-3.494-3.151-10.981-2.626-13.976 0Z" fill="#1D8CE0"/><rect x="7" width="36" height="3" rx="1.5" fill="#C57A09"/><rect x="7" y="47" width="36" height="3" rx="1.5" fill="#C57A09"/></symbol><symbol fill="none" viewBox="0 0 50 50" id="offline_hour_cap_2" xmlns="http://www.w3.org/2000/svg"><path d="M11 9.236c-.5-2.264 0-6.03 0-7.236h28c0 2.067.5 5.006 0 7.753s-2.51 6.117-4.582 8.747C32.345 21.13 28 22.933 28 25s3.873 3.876 6.418 6.46C36.964 34.046 38.5 37.5 39 40.248c.37 2.034 0 6.03 0 7.753H11c0-1.723-.444-5.312 0-7.753.5-2.747 1.954-6.202 4.5-8.786C18.045 28.876 22 27.067 22 25s-4-3.5-6.5-6.5-4-7-4.5-9.264Z" fill="#1D8CE0"/><path d="M11 9.236c-.5-2.264 0-6.03 0-7.236h28c0 2.067.5 5.006 0 7.753s-2.51 6.117-4.582 8.747C32.345 21.13 28 22.933 28 25s3.873 3.876 6.418 6.46C36.964 34.046 38.5 37.5 39 40.248c.37 2.034 0 6.03 0 7.753H11c0-1.723-.444-5.312 0-7.753.5-2.747 1.954-6.202 4.5-8.786C18.045 28.876 22 27.067 22 25s-4-3.5-6.5-6.5-4-7-4.5-9.264Z" fill="#fff" fill-opacity=".95"/><path d="M11 9.236c-.5-2.264 0-6.03 0-7.236h28c0 2.067.5 5.006 0 7.753s-2.51 6.117-4.582 8.747C32.345 21.13 28 22.933 28 25s3.873 3.876 6.418 6.46C36.964 34.046 38.5 37.5 39 40.248c.37 2.034 0 6.03 0 7.753H11c0-1.723-.444-5.312 0-7.753.5-2.747 1.954-6.202 4.5-8.786C18.045 28.876 22 27.067 22 25s-4-3.5-6.5-6.5-4-7-4.5-9.264Z" stroke="#1D8CE0"/><path d="M11 9.236c-.5-2.264 0-6.03 0-7.236h28c0 2.067.5 5.006 0 7.753s-2.51 6.117-4.582 8.747C32.345 21.13 28 22.933 28 25s3.873 3.876 6.418 6.46C36.964 34.046 38.5 37.5 39 40.248c.37 2.034 0 6.03 0 7.753H11c0-1.723-.444-5.312 0-7.753.5-2.747 1.954-6.202 4.5-8.786C18.045 28.876 22 27.067 22 25s-4-3.5-6.5-6.5-4-7-4.5-9.264Z" stroke="#000" stroke-opacity=".2"/><path d="M35.5 11h-21c1 3 1.5 5 4 7s5.5 4 6.5 6c1-2 4.5-4.5 6.5-6 2.308-1.73 3-4 4-7Z" fill="#1D8CE0"/><path d="M35.5 11h-21c1 3 1.5 5 4 7s5.5 4 6.5 6c1-2 4.5-4.5 6.5-6 2.308-1.73 3-4 4-7Z" fill="#fff" fill-opacity=".2"/><circle cx="25" cy="28.5" r="1.5" fill="#1D8CE0"/><circle cx="25" cy="33.5" r="1.5" fill="#1D8CE0"/><path d="M17.995 40.171C15.599 42.272 15 45.6 15 47h19.966c.167-1.226-.2-4.307-2.995-6.829-3.494-3.151-10.981-2.626-13.976 0Z" fill="#1D8CE0"/><rect x="7" width="36" height="3" rx="1.5" fill="#C57A09"/><rect x="7" y="47" width="36" height="3" rx="1.5" fill="#C57A09"/></symbol><symbol fill="none" viewBox="0 0 50 50" id="offline_hour_cap_3" xmlns="http://www.w3.org/2000/svg"><path d="M11 9.236c-.5-2.264 0-6.03 0-7.236h28c0 2.067.5 5.006 0 7.753s-2.51 6.117-4.582 8.747C32.345 21.13 28 22.933 28 25s3.873 3.876 6.418 6.46C36.964 34.046 38.5 37.5 39 40.248c.37 2.034 0 6.03 0 7.753H11c0-1.723-.444-5.312 0-7.753.5-2.747 1.954-6.202 4.5-8.786C18.045 28.876 22 27.067 22 25s-4-3.5-6.5-6.5-4-7-4.5-9.264Z" fill="#1D8CE0"/><path d="M11 9.236c-.5-2.264 0-6.03 0-7.236h28c0 2.067.5 5.006 0 7.753s-2.51 6.117-4.582 8.747C32.345 21.13 28 22.933 28 25s3.873 3.876 6.418 6.46C36.964 34.046 38.5 37.5 39 40.248c.37 2.034 0 6.03 0 7.753H11c0-1.723-.444-5.312 0-7.753.5-2.747 1.954-6.202 4.5-8.786C18.045 28.876 22 27.067 22 25s-4-3.5-6.5-6.5-4-7-4.5-9.264Z" fill="#fff" fill-opacity=".95"/><path d="M11 9.236c-.5-2.264 0-6.03 0-7.236h28c0 2.067.5 5.006 0 7.753s-2.51 6.117-4.582 8.747C32.345 21.13 28 22.933 28 25s3.873 3.876 6.418 6.46C36.964 34.046 38.5 37.5 39 40.248c.37 2.034 0 6.03 0 7.753H11c0-1.723-.444-5.312 0-7.753.5-2.747 1.954-6.202 4.5-8.786C18.045 28.876 22 27.067 22 25s-4-3.5-6.5-6.5-4-7-4.5-9.264Z" stroke="#1D8CE0"/><path d="M11 9.236c-.5-2.264 0-6.03 0-7.236h28c0 2.067.5 5.006 0 7.753s-2.51 6.117-4.582 8.747C32.345 21.13 28 22.933 28 25s3.873 3.876 6.418 6.46C36.964 34.046 38.5 37.5 39 40.248c.37 2.034 0 6.03 0 7.753H11c0-1.723-.444-5.312 0-7.753.5-2.747 1.954-6.202 4.5-8.786C18.045 28.876 22 27.067 22 25s-4-3.5-6.5-6.5-4-7-4.5-9.264Z" stroke="#000" stroke-opacity=".2"/><path d="M35.5 11h-21c1 3 1.5 5 4 7s5.5 4 6.5 6c1-2 4.5-4.5 6.5-6 2.308-1.73 3-4 4-7Z" fill="#1D8CE0"/><path d="M35.5 11h-21c1 3 1.5 5 4 7s5.5 4 6.5 6c1-2 4.5-4.5 6.5-6 2.308-1.73 3-4 4-7Z" fill="#fff" fill-opacity=".2"/><circle cx="25" cy="28.5" r="1.5" fill="#1D8CE0"/><circle cx="25" cy="33.5" r="1.5" fill="#1D8CE0"/><path d="M17.995 40.171C15.599 42.272 15 45.6 15 47h19.966c.167-1.226-.2-4.307-2.995-6.829-3.494-3.151-10.981-2.626-13.976 0Z" fill="#1D8CE0"/><rect x="7" width="36" height="3" rx="1.5" fill="#C57A09"/><rect x="7" y="47" width="36" height="3" rx="1.5" fill="#C57A09"/></symbol><symbol fill="none" viewBox="0 0 50 50" id="offline_hour_cap_4" xmlns="http://www.w3.org/2000/svg"><path d="M11 9.236c-.5-2.264 0-6.03 0-7.236h28c0 2.067.5 5.006 0 7.753s-2.51 6.117-4.582 8.747C32.345 21.13 28 22.933 28 25s3.873 3.876 6.418 6.46C36.964 34.046 38.5 37.5 39 40.248c.37 2.034 0 6.03 0 7.753H11c0-1.723-.444-5.312 0-7.753.5-2.747 1.954-6.202 4.5-8.786C18.045 28.876 22 27.067 22 25s-4-3.5-6.5-6.5-4-7-4.5-9.264Z" fill="#1D8CE0"/><path d="M11 9.236c-.5-2.264 0-6.03 0-7.236h28c0 2.067.5 5.006 0 7.753s-2.51 6.117-4.582 8.747C32.345 21.13 28 22.933 28 25s3.873 3.876 6.418 6.46C36.964 34.046 38.5 37.5 39 40.248c.37 2.034 0 6.03 0 7.753H11c0-1.723-.444-5.312 0-7.753.5-2.747 1.954-6.202 4.5-8.786C18.045 28.876 22 27.067 22 25s-4-3.5-6.5-6.5-4-7-4.5-9.264Z" fill="#fff" fill-opacity=".95"/><path d="M11 9.236c-.5-2.264 0-6.03 0-7.236h28c0 2.067.5 5.006 0 7.753s-2.51 6.117-4.582 8.747C32.345 21.13 28 22.933 28 25s3.873 3.876 6.418 6.46C36.964 34.046 38.5 37.5 39 40.248c.37 2.034 0 6.03 0 7.753H11c0-1.723-.444-5.312 0-7.753.5-2.747 1.954-6.202 4.5-8.786C18.045 28.876 22 27.067 22 25s-4-3.5-6.5-6.5-4-7-4.5-9.264Z" stroke="#1D8CE0"/><path d="M11 9.236c-.5-2.264 0-6.03 0-7.236h28c0 2.067.5 5.006 0 7.753s-2.51 6.117-4.582 8.747C32.345 21.13 28 22.933 28 25s3.873 3.876 6.418 6.46C36.964 34.046 38.5 37.5 39 40.248c.37 2.034 0 6.03 0 7.753H11c0-1.723-.444-5.312 0-7.753.5-2.747 1.954-6.202 4.5-8.786C18.045 28.876 22 27.067 22 25s-4-3.5-6.5-6.5-4-7-4.5-9.264Z" stroke="#000" stroke-opacity=".2"/><path d="M35.5 11h-21c1 3 1.5 5 4 7s5.5 4 6.5 6c1-2 4.5-4.5 6.5-6 2.308-1.73 3-4 4-7Z" fill="#1D8CE0"/><path d="M35.5 11h-21c1 3 1.5 5 4 7s5.5 4 6.5 6c1-2 4.5-4.5 6.5-6 2.308-1.73 3-4 4-7Z" fill="#fff" fill-opacity=".2"/><circle cx="25" cy="28.5" r="1.5" fill="#1D8CE0"/><circle cx="25" cy="33.5" r="1.5" fill="#1D8CE0"/><path d="M17.995 40.171C15.599 42.272 15 45.6 15 47h19.966c.167-1.226-.2-4.307-2.995-6.829-3.494-3.151-10.981-2.626-13.976 0Z" fill="#1D8CE0"/><rect x="7" width="36" height="3" rx="1.5" fill="#C57A09"/><rect x="7" y="47" width="36" height="3" rx="1.5" fill="#C57A09"/></symbol><symbol fill="none" viewBox="0 0 50 50" id="task_slot_cap_1" xmlns="http://www.w3.org/2000/svg"><path d="M10 48h29.209c.854 0 2.903-1.067 3.587-3.2.82-2.56-1.025-4.267-2.05-4.8H11.025c1.195.356 3.075 2.133 2.562 4.267C13.075 46.4 11.196 47.467 10 48Z" fill="#7445B8"/><path d="M39.673 2H16.234c-.532 4.035-2.13 13.17-4.261 17.432-2.664 5.326-6.393 9.684-6.925 18.4C4.62 44.804 7.138 46.063 9.269 48h28.806c-3.236-1.937-4.728-4.261-4.302-9.684.533-6.78 5.367-14.527 6.965-18.4C42.337 16.042 45 10.716 45 6.358 45 2.872 41.449 2 39.673 2Z" fill="#7445B8"/><path d="M39.673 2H16.234c-.532 4.035-2.13 13.17-4.261 17.432-2.664 5.326-6.393 9.684-6.925 18.4C4.62 44.804 7.138 46.063 9.269 48h28.806c-3.236-1.937-4.728-4.261-4.302-9.684.533-6.78 5.367-14.527 6.965-18.4C42.337 16.042 45 10.716 45 6.358 45 2.872 41.449 2 39.673 2Z" fill="#fff" fill-opacity=".2"/><path d="M41 2H11.791c-.854 0-2.903 1.067-3.587 3.2-.82 2.56 1.025 4.267 2.05 4.8h29.721c-1.196-.356-3.1-2.5-2.642-4.5C37.792 3.5 39.167 2 41 2Z" fill="#7445B8"/><path d="M41 2H11.791c-.854 0-2.903 1.067-3.587 3.2-.82 2.56 1.025 4.267 2.05 4.8h29.721c-1.196-.356-3.1-2.5-2.642-4.5C37.792 3.5 39.167 2 41 2Z" fill="#fff" fill-opacity=".6"/><path d="M14.82 22.477 19 29.5l13.727-8.266" stroke="#7445B8" stroke-width="4"/><path d="M14.82 22.477 19 29.5l13.727-8.266" stroke="#fff" stroke-opacity=".95" stroke-width="4"/></symbol><symbol fill="none" viewBox="0 0 50 50" id="task_slot_cap_2" xmlns="http://www.w3.org/2000/svg"><path d="M10 48h29.209c.854 0 2.903-1.067 3.587-3.2.82-2.56-1.025-4.267-2.05-4.8H11.025c1.195.356 3.075 2.133 2.562 4.267C13.075 46.4 11.196 47.467 10 48Z" fill="#7445B8"/><path d="M39.673 2H16.234c-.532 4.035-2.13 13.17-4.261 17.432-2.664 5.326-6.393 9.684-6.925 18.4C4.62 44.804 7.138 46.063 9.269 48h28.806c-3.236-1.937-4.728-4.261-4.302-9.684.533-6.78 5.367-14.527 6.965-18.4C42.337 16.042 45 10.716 45 6.358 45 2.872 41.449 2 39.673 2Z" fill="#7445B8"/><path d="M39.673 2H16.234c-.532 4.035-2.13 13.17-4.261 17.432-2.664 5.326-6.393 9.684-6.925 18.4C4.62 44.804 7.138 46.063 9.269 48h28.806c-3.236-1.937-4.728-4.261-4.302-9.684.533-6.78 5.367-14.527 6.965-18.4C42.337 16.042 45 10.716 45 6.358 45 2.872 41.449 2 39.673 2Z" fill="#fff" fill-opacity=".2"/><path d="M41 2H11.791c-.854 0-2.903 1.067-3.587 3.2-.82 2.56 1.025 4.267 2.05 4.8h29.721c-1.196-.356-3.1-2.5-2.642-4.5C37.792 3.5 39.167 2 41 2Z" fill="#7445B8"/><path d="M41 2H11.791c-.854 0-2.903 1.067-3.587 3.2-.82 2.56 1.025 4.267 2.05 4.8h29.721c-1.196-.356-3.1-2.5-2.642-4.5C37.792 3.5 39.167 2 41 2Z" fill="#fff" fill-opacity=".6"/><path d="M14.82 22.477 19 29.5l13.727-8.266" stroke="#7445B8" stroke-width="4"/><path d="M14.82 22.477 19 29.5l13.727-8.266" stroke="#fff" stroke-opacity=".95" stroke-width="4"/></symbol><symbol fill="none" viewBox="0 0 50 50" id="task_slot_cap_3" xmlns="http://www.w3.org/2000/svg"><path d="M10 48h29.209c.854 0 2.903-1.067 3.587-3.2.82-2.56-1.025-4.267-2.05-4.8H11.025c1.195.356 3.075 2.133 2.562 4.267C13.075 46.4 11.196 47.467 10 48Z" fill="#7445B8"/><path d="M39.673 2H16.234c-.532 4.035-2.13 13.17-4.261 17.432-2.664 5.326-6.393 9.684-6.925 18.4C4.62 44.804 7.138 46.063 9.269 48h28.806c-3.236-1.937-4.728-4.261-4.302-9.684.533-6.78 5.367-14.527 6.965-18.4C42.337 16.042 45 10.716 45 6.358 45 2.872 41.449 2 39.673 2Z" fill="#7445B8"/><path d="M39.673 2H16.234c-.532 4.035-2.13 13.17-4.261 17.432-2.664 5.326-6.393 9.684-6.925 18.4C4.62 44.804 7.138 46.063 9.269 48h28.806c-3.236-1.937-4.728-4.261-4.302-9.684.533-6.78 5.367-14.527 6.965-18.4C42.337 16.042 45 10.716 45 6.358 45 2.872 41.449 2 39.673 2Z" fill="#fff" fill-opacity=".2"/><path d="M41 2H11.791c-.854 0-2.903 1.067-3.587 3.2-.82 2.56 1.025 4.267 2.05 4.8h29.721c-1.196-.356-3.1-2.5-2.642-4.5C37.792 3.5 39.167 2 41 2Z" fill="#7445B8"/><path d="M41 2H11.791c-.854 0-2.903 1.067-3.587 3.2-.82 2.56 1.025 4.267 2.05 4.8h29.721c-1.196-.356-3.1-2.5-2.642-4.5C37.792 3.5 39.167 2 41 2Z" fill="#fff" fill-opacity=".6"/><path d="M14.82 22.477 19 29.5l13.727-8.266" stroke="#7445B8" stroke-width="4"/><path d="M14.82 22.477 19 29.5l13.727-8.266" stroke="#fff" stroke-opacity=".95" stroke-width="4"/></symbol><symbol fill="none" viewBox="0 0 50 50" id="task_slot_cap_4" xmlns="http://www.w3.org/2000/svg"><path d="M10 48h29.209c.854 0 2.903-1.067 3.587-3.2.82-2.56-1.025-4.267-2.05-4.8H11.025c1.195.356 3.075 2.133 2.562 4.267C13.075 46.4 11.196 47.467 10 48Z" fill="#7445B8"/><path d="M39.673 2H16.234c-.532 4.035-2.13 13.17-4.261 17.432-2.664 5.326-6.393 9.684-6.925 18.4C4.62 44.804 7.138 46.063 9.269 48h28.806c-3.236-1.937-4.728-4.261-4.302-9.684.533-6.78 5.367-14.527 6.965-18.4C42.337 16.042 45 10.716 45 6.358 45 2.872 41.449 2 39.673 2Z" fill="#7445B8"/><path d="M39.673 2H16.234c-.532 4.035-2.13 13.17-4.261 17.432-2.664 5.326-6.393 9.684-6.925 18.4C4.62 44.804 7.138 46.063 9.269 48h28.806c-3.236-1.937-4.728-4.261-4.302-9.684.533-6.78 5.367-14.527 6.965-18.4C42.337 16.042 45 10.716 45 6.358 45 2.872 41.449 2 39.673 2Z" fill="#fff" fill-opacity=".2"/><path d="M41 2H11.791c-.854 0-2.903 1.067-3.587 3.2-.82 2.56 1.025 4.267 2.05 4.8h29.721c-1.196-.356-3.1-2.5-2.642-4.5C37.792 3.5 39.167 2 41 2Z" fill="#7445B8"/><path d="M41 2H11.791c-.854 0-2.903 1.067-3.587 3.2-.82 2.56 1.025 4.267 2.05 4.8h29.721c-1.196-.356-3.1-2.5-2.642-4.5C37.792 3.5 39.167 2 41 2Z" fill="#fff" fill-opacity=".6"/><path d="M14.82 22.477 19 29.5l13.727-8.266" stroke="#7445B8" stroke-width="4"/><path d="M14.82 22.477 19 29.5l13.727-8.266" stroke="#fff" stroke-opacity=".95" stroke-width="4"/></symbol></svg>